<mxfile host="Electron" agent="Mozilla/5.0 (Windows NT 10.0; Win64; x64) AppleWebKit/537.36 (KHTML, like Gecko) draw.io/26.0.9 Chrome/128.0.6613.186 Electron/32.2.5 Safari/537.36" version="26.0.9">
  <diagram name="第 1 页" id="fd4EhWadq59LHY81k3FC">
    <mxGraphModel dx="2342" dy="1557" grid="1" gridSize="10" guides="1" tooltips="1" connect="1" arrows="1" fold="1" page="1" pageScale="1" pageWidth="827" pageHeight="1169" math="0" shadow="0">
      <root>
        <mxCell id="0" />
        <mxCell id="1" parent="0" />
        <mxCell id="CQehMLbI-TvT4RRxddDj-146" value="Assets" style="childLayout=tableLayout;recursiveResize=0;strokeColor=#98bf21;fillColor=#A7C942;shadow=1;" parent="1" vertex="1">
          <mxGeometry x="-1210" y="640" width="466" height="563" as="geometry" />
        </mxCell>
        <mxCell id="CQehMLbI-TvT4RRxddDj-147" style="shape=tableRow;horizontal=0;startSize=0;swimlaneHead=0;swimlaneBody=0;top=0;left=0;bottom=0;right=0;dropTarget=0;collapsible=0;recursiveResize=0;expand=0;fontStyle=0;strokeColor=inherit;fillColor=#ffffff;" parent="CQehMLbI-TvT4RRxddDj-146" vertex="1">
          <mxGeometry width="466" height="33" as="geometry" />
        </mxCell>
        <mxCell id="CQehMLbI-TvT4RRxddDj-167" value="信号名" style="connectable=0;recursiveResize=0;strokeColor=inherit;fillColor=#A7C942;align=center;fontStyle=1;fontColor=#FFFFFF;html=1;" parent="CQehMLbI-TvT4RRxddDj-147" vertex="1">
          <mxGeometry width="93" height="33" as="geometry">
            <mxRectangle width="93" height="33" as="alternateBounds" />
          </mxGeometry>
        </mxCell>
        <mxCell id="CQehMLbI-TvT4RRxddDj-148" value="位宽" style="connectable=0;recursiveResize=0;strokeColor=inherit;fillColor=#A7C942;align=center;fontStyle=1;fontColor=#FFFFFF;html=1;" parent="CQehMLbI-TvT4RRxddDj-147" vertex="1">
          <mxGeometry x="93" width="93" height="33" as="geometry">
            <mxRectangle width="93" height="33" as="alternateBounds" />
          </mxGeometry>
        </mxCell>
        <mxCell id="CQehMLbI-TvT4RRxddDj-149" value="方向" style="connectable=0;recursiveResize=0;strokeColor=inherit;fillColor=#A7C942;align=center;fontStyle=1;fontColor=#FFFFFF;html=1;" parent="CQehMLbI-TvT4RRxddDj-147" vertex="1">
          <mxGeometry x="186" width="94" height="33" as="geometry">
            <mxRectangle width="94" height="33" as="alternateBounds" />
          </mxGeometry>
        </mxCell>
        <mxCell id="CQehMLbI-TvT4RRxddDj-150" value="端口说明" style="connectable=0;recursiveResize=0;strokeColor=inherit;fillColor=#A7C942;align=center;fontStyle=1;fontColor=#FFFFFF;html=1;" parent="CQehMLbI-TvT4RRxddDj-147" vertex="1">
          <mxGeometry x="280" width="186" height="33" as="geometry">
            <mxRectangle width="186" height="33" as="alternateBounds" />
          </mxGeometry>
        </mxCell>
        <mxCell id="CQehMLbI-TvT4RRxddDj-151" value="" style="shape=tableRow;horizontal=0;startSize=0;swimlaneHead=0;swimlaneBody=0;top=0;left=0;bottom=0;right=0;dropTarget=0;collapsible=0;recursiveResize=0;expand=0;fontStyle=0;strokeColor=inherit;fillColor=#ffffff;" parent="CQehMLbI-TvT4RRxddDj-146" vertex="1">
          <mxGeometry y="33" width="466" height="32" as="geometry" />
        </mxCell>
        <mxCell id="CQehMLbI-TvT4RRxddDj-168" value="&lt;span style=&quot;font-size: 11px; text-wrap: nowrap;&quot;&gt;clk_1x&lt;/span&gt;" style="connectable=0;recursiveResize=0;strokeColor=inherit;fillColor=inherit;align=center;whiteSpace=wrap;html=1;" parent="CQehMLbI-TvT4RRxddDj-151" vertex="1">
          <mxGeometry width="93" height="32" as="geometry">
            <mxRectangle width="93" height="32" as="alternateBounds" />
          </mxGeometry>
        </mxCell>
        <mxCell id="CQehMLbI-TvT4RRxddDj-152" value="1" style="connectable=0;recursiveResize=0;strokeColor=inherit;fillColor=inherit;align=center;whiteSpace=wrap;html=1;" parent="CQehMLbI-TvT4RRxddDj-151" vertex="1">
          <mxGeometry x="93" width="93" height="32" as="geometry">
            <mxRectangle width="93" height="32" as="alternateBounds" />
          </mxGeometry>
        </mxCell>
        <mxCell id="CQehMLbI-TvT4RRxddDj-153" value="输入" style="connectable=0;recursiveResize=0;strokeColor=inherit;fillColor=inherit;align=center;whiteSpace=wrap;html=1;" parent="CQehMLbI-TvT4RRxddDj-151" vertex="1">
          <mxGeometry x="186" width="94" height="32" as="geometry">
            <mxRectangle width="94" height="32" as="alternateBounds" />
          </mxGeometry>
        </mxCell>
        <mxCell id="CQehMLbI-TvT4RRxddDj-154" value="25MHz工作时钟" style="connectable=0;recursiveResize=0;strokeColor=inherit;fillColor=inherit;align=center;whiteSpace=wrap;html=1;" parent="CQehMLbI-TvT4RRxddDj-151" vertex="1">
          <mxGeometry x="280" width="186" height="32" as="geometry">
            <mxRectangle width="186" height="32" as="alternateBounds" />
          </mxGeometry>
        </mxCell>
        <mxCell id="CQehMLbI-TvT4RRxddDj-155" value="" style="shape=tableRow;horizontal=0;startSize=0;swimlaneHead=0;swimlaneBody=0;top=0;left=0;bottom=0;right=0;dropTarget=0;collapsible=0;recursiveResize=0;expand=0;fontStyle=1;strokeColor=inherit;fillColor=#EAF2D3;" parent="CQehMLbI-TvT4RRxddDj-146" vertex="1">
          <mxGeometry y="65" width="466" height="31" as="geometry" />
        </mxCell>
        <mxCell id="CQehMLbI-TvT4RRxddDj-169" value="sys_rst_n" style="connectable=0;recursiveResize=0;strokeColor=inherit;fillColor=inherit;whiteSpace=wrap;html=1;" parent="CQehMLbI-TvT4RRxddDj-155" vertex="1">
          <mxGeometry width="93" height="31" as="geometry">
            <mxRectangle width="93" height="31" as="alternateBounds" />
          </mxGeometry>
        </mxCell>
        <mxCell id="CQehMLbI-TvT4RRxddDj-156" value="1" style="connectable=0;recursiveResize=0;strokeColor=inherit;fillColor=inherit;whiteSpace=wrap;html=1;" parent="CQehMLbI-TvT4RRxddDj-155" vertex="1">
          <mxGeometry x="93" width="93" height="31" as="geometry">
            <mxRectangle width="93" height="31" as="alternateBounds" />
          </mxGeometry>
        </mxCell>
        <mxCell id="CQehMLbI-TvT4RRxddDj-157" value="输入" style="connectable=0;recursiveResize=0;strokeColor=inherit;fillColor=inherit;whiteSpace=wrap;html=1;" parent="CQehMLbI-TvT4RRxddDj-155" vertex="1">
          <mxGeometry x="186" width="94" height="31" as="geometry">
            <mxRectangle width="94" height="31" as="alternateBounds" />
          </mxGeometry>
        </mxCell>
        <mxCell id="CQehMLbI-TvT4RRxddDj-158" value="复位，低电平有效" style="connectable=0;recursiveResize=0;strokeColor=inherit;fillColor=inherit;whiteSpace=wrap;html=1;" parent="CQehMLbI-TvT4RRxddDj-155" vertex="1">
          <mxGeometry x="280" width="186" height="31" as="geometry">
            <mxRectangle width="186" height="31" as="alternateBounds" />
          </mxGeometry>
        </mxCell>
        <mxCell id="CQehMLbI-TvT4RRxddDj-159" value="" style="shape=tableRow;horizontal=0;startSize=0;swimlaneHead=0;swimlaneBody=0;top=0;left=0;bottom=0;right=0;dropTarget=0;collapsible=0;recursiveResize=0;expand=0;fontStyle=0;strokeColor=inherit;fillColor=#ffffff;" parent="CQehMLbI-TvT4RRxddDj-146" vertex="1">
          <mxGeometry y="96" width="466" height="33" as="geometry" />
        </mxCell>
        <mxCell id="CQehMLbI-TvT4RRxddDj-170" value="hsync" style="connectable=0;recursiveResize=0;strokeColor=inherit;fillColor=inherit;fontStyle=0;align=center;whiteSpace=wrap;html=1;" parent="CQehMLbI-TvT4RRxddDj-159" vertex="1">
          <mxGeometry width="93" height="33" as="geometry">
            <mxRectangle width="93" height="33" as="alternateBounds" />
          </mxGeometry>
        </mxCell>
        <mxCell id="CQehMLbI-TvT4RRxddDj-160" value="1" style="connectable=0;recursiveResize=0;strokeColor=inherit;fillColor=inherit;fontStyle=0;align=center;whiteSpace=wrap;html=1;" parent="CQehMLbI-TvT4RRxddDj-159" vertex="1">
          <mxGeometry x="93" width="93" height="33" as="geometry">
            <mxRectangle width="93" height="33" as="alternateBounds" />
          </mxGeometry>
        </mxCell>
        <mxCell id="CQehMLbI-TvT4RRxddDj-161" value="输入" style="connectable=0;recursiveResize=0;strokeColor=inherit;fillColor=inherit;fontStyle=0;align=center;whiteSpace=wrap;html=1;" parent="CQehMLbI-TvT4RRxddDj-159" vertex="1">
          <mxGeometry x="186" width="94" height="33" as="geometry">
            <mxRectangle width="94" height="33" as="alternateBounds" />
          </mxGeometry>
        </mxCell>
        <mxCell id="CQehMLbI-TvT4RRxddDj-162" value="行同步信号" style="connectable=0;recursiveResize=0;strokeColor=inherit;fillColor=inherit;fontStyle=0;align=center;whiteSpace=wrap;html=1;" parent="CQehMLbI-TvT4RRxddDj-159" vertex="1">
          <mxGeometry x="280" width="186" height="33" as="geometry">
            <mxRectangle width="186" height="33" as="alternateBounds" />
          </mxGeometry>
        </mxCell>
        <mxCell id="CQehMLbI-TvT4RRxddDj-163" value="" style="shape=tableRow;horizontal=0;startSize=0;swimlaneHead=0;swimlaneBody=0;top=0;left=0;bottom=0;right=0;dropTarget=0;collapsible=0;recursiveResize=0;expand=0;fontStyle=1;strokeColor=inherit;fillColor=#EAF2D3;" parent="CQehMLbI-TvT4RRxddDj-146" vertex="1">
          <mxGeometry y="129" width="466" height="31" as="geometry" />
        </mxCell>
        <mxCell id="CQehMLbI-TvT4RRxddDj-171" value="vsync" style="connectable=0;recursiveResize=0;strokeColor=inherit;fillColor=inherit;whiteSpace=wrap;html=1;" parent="CQehMLbI-TvT4RRxddDj-163" vertex="1">
          <mxGeometry width="93" height="31" as="geometry">
            <mxRectangle width="93" height="31" as="alternateBounds" />
          </mxGeometry>
        </mxCell>
        <mxCell id="CQehMLbI-TvT4RRxddDj-164" value="1" style="connectable=0;recursiveResize=0;strokeColor=inherit;fillColor=inherit;whiteSpace=wrap;html=1;" parent="CQehMLbI-TvT4RRxddDj-163" vertex="1">
          <mxGeometry x="93" width="93" height="31" as="geometry">
            <mxRectangle width="93" height="31" as="alternateBounds" />
          </mxGeometry>
        </mxCell>
        <mxCell id="CQehMLbI-TvT4RRxddDj-165" value="输入" style="connectable=0;recursiveResize=0;strokeColor=inherit;fillColor=inherit;whiteSpace=wrap;html=1;" parent="CQehMLbI-TvT4RRxddDj-163" vertex="1">
          <mxGeometry x="186" width="94" height="31" as="geometry">
            <mxRectangle width="94" height="31" as="alternateBounds" />
          </mxGeometry>
        </mxCell>
        <mxCell id="CQehMLbI-TvT4RRxddDj-166" value="场同步信号" style="connectable=0;recursiveResize=0;strokeColor=inherit;fillColor=inherit;whiteSpace=wrap;html=1;" parent="CQehMLbI-TvT4RRxddDj-163" vertex="1">
          <mxGeometry x="280" width="186" height="31" as="geometry">
            <mxRectangle width="186" height="31" as="alternateBounds" />
          </mxGeometry>
        </mxCell>
        <mxCell id="CQehMLbI-TvT4RRxddDj-177" style="shape=tableRow;horizontal=0;startSize=0;swimlaneHead=0;swimlaneBody=0;top=0;left=0;bottom=0;right=0;dropTarget=0;collapsible=0;recursiveResize=0;expand=0;fontStyle=1;strokeColor=inherit;fillColor=#EAF2D3;" parent="CQehMLbI-TvT4RRxddDj-146" vertex="1">
          <mxGeometry y="160" width="466" height="31" as="geometry" />
        </mxCell>
        <mxCell id="CQehMLbI-TvT4RRxddDj-178" value="de" style="connectable=0;recursiveResize=0;whiteSpace=wrap;html=1;fillColor=default;strokeColor=inherit;" parent="CQehMLbI-TvT4RRxddDj-177" vertex="1">
          <mxGeometry width="93" height="31" as="geometry">
            <mxRectangle width="93" height="31" as="alternateBounds" />
          </mxGeometry>
        </mxCell>
        <mxCell id="CQehMLbI-TvT4RRxddDj-179" value="1" style="connectable=0;recursiveResize=0;whiteSpace=wrap;html=1;fillColor=default;strokeColor=inherit;" parent="CQehMLbI-TvT4RRxddDj-177" vertex="1">
          <mxGeometry x="93" width="93" height="31" as="geometry">
            <mxRectangle width="93" height="31" as="alternateBounds" />
          </mxGeometry>
        </mxCell>
        <mxCell id="CQehMLbI-TvT4RRxddDj-180" value="输入" style="connectable=0;recursiveResize=0;whiteSpace=wrap;html=1;fillColor=default;strokeColor=inherit;" parent="CQehMLbI-TvT4RRxddDj-177" vertex="1">
          <mxGeometry x="186" width="94" height="31" as="geometry">
            <mxRectangle width="94" height="31" as="alternateBounds" />
          </mxGeometry>
        </mxCell>
        <mxCell id="CQehMLbI-TvT4RRxddDj-181" value="使能信号" style="connectable=0;recursiveResize=0;whiteSpace=wrap;html=1;fillColor=default;strokeColor=inherit;" parent="CQehMLbI-TvT4RRxddDj-177" vertex="1">
          <mxGeometry x="280" width="186" height="31" as="geometry">
            <mxRectangle width="186" height="31" as="alternateBounds" />
          </mxGeometry>
        </mxCell>
        <mxCell id="UoMwkHRBYrsfCAEj0GG8-5" style="shape=tableRow;horizontal=0;startSize=0;swimlaneHead=0;swimlaneBody=0;top=0;left=0;bottom=0;right=0;dropTarget=0;collapsible=0;recursiveResize=0;expand=0;fontStyle=1;strokeColor=inherit;fillColor=#EAF2D3;" parent="CQehMLbI-TvT4RRxddDj-146" vertex="1">
          <mxGeometry y="191" width="466" height="31" as="geometry" />
        </mxCell>
        <mxCell id="UoMwkHRBYrsfCAEj0GG8-6" value="rgb_red" style="connectable=0;recursiveResize=0;strokeColor=inherit;fillColor=inherit;whiteSpace=wrap;html=1;" parent="UoMwkHRBYrsfCAEj0GG8-5" vertex="1">
          <mxGeometry width="93" height="31" as="geometry">
            <mxRectangle width="93" height="31" as="alternateBounds" />
          </mxGeometry>
        </mxCell>
        <mxCell id="UoMwkHRBYrsfCAEj0GG8-7" value="8" style="connectable=0;recursiveResize=0;strokeColor=inherit;fillColor=inherit;whiteSpace=wrap;html=1;" parent="UoMwkHRBYrsfCAEj0GG8-5" vertex="1">
          <mxGeometry x="93" width="93" height="31" as="geometry">
            <mxRectangle width="93" height="31" as="alternateBounds" />
          </mxGeometry>
        </mxCell>
        <mxCell id="UoMwkHRBYrsfCAEj0GG8-8" value="输入" style="connectable=0;recursiveResize=0;strokeColor=inherit;fillColor=inherit;whiteSpace=wrap;html=1;" parent="UoMwkHRBYrsfCAEj0GG8-5" vertex="1">
          <mxGeometry x="186" width="94" height="31" as="geometry">
            <mxRectangle width="94" height="31" as="alternateBounds" />
          </mxGeometry>
        </mxCell>
        <mxCell id="UoMwkHRBYrsfCAEj0GG8-9" value="红色通道数据" style="connectable=0;recursiveResize=0;strokeColor=inherit;fillColor=inherit;whiteSpace=wrap;html=1;" parent="UoMwkHRBYrsfCAEj0GG8-5" vertex="1">
          <mxGeometry x="280" width="186" height="31" as="geometry">
            <mxRectangle width="186" height="31" as="alternateBounds" />
          </mxGeometry>
        </mxCell>
        <mxCell id="UoMwkHRBYrsfCAEj0GG8-10" style="shape=tableRow;horizontal=0;startSize=0;swimlaneHead=0;swimlaneBody=0;top=0;left=0;bottom=0;right=0;dropTarget=0;collapsible=0;recursiveResize=0;expand=0;fontStyle=1;strokeColor=inherit;fillColor=#EAF2D3;" parent="CQehMLbI-TvT4RRxddDj-146" vertex="1">
          <mxGeometry y="222" width="466" height="31" as="geometry" />
        </mxCell>
        <mxCell id="UoMwkHRBYrsfCAEj0GG8-11" value="rgb_green" style="connectable=0;recursiveResize=0;whiteSpace=wrap;html=1;strokeColor=inherit;" parent="UoMwkHRBYrsfCAEj0GG8-10" vertex="1">
          <mxGeometry width="93" height="31" as="geometry">
            <mxRectangle width="93" height="31" as="alternateBounds" />
          </mxGeometry>
        </mxCell>
        <mxCell id="UoMwkHRBYrsfCAEj0GG8-12" value="8" style="connectable=0;recursiveResize=0;whiteSpace=wrap;html=1;strokeColor=inherit;" parent="UoMwkHRBYrsfCAEj0GG8-10" vertex="1">
          <mxGeometry x="93" width="93" height="31" as="geometry">
            <mxRectangle width="93" height="31" as="alternateBounds" />
          </mxGeometry>
        </mxCell>
        <mxCell id="UoMwkHRBYrsfCAEj0GG8-13" value="输入" style="connectable=0;recursiveResize=0;whiteSpace=wrap;html=1;strokeColor=inherit;" parent="UoMwkHRBYrsfCAEj0GG8-10" vertex="1">
          <mxGeometry x="186" width="94" height="31" as="geometry">
            <mxRectangle width="94" height="31" as="alternateBounds" />
          </mxGeometry>
        </mxCell>
        <mxCell id="UoMwkHRBYrsfCAEj0GG8-14" value="绿色通道数据" style="connectable=0;recursiveResize=0;whiteSpace=wrap;html=1;strokeColor=inherit;" parent="UoMwkHRBYrsfCAEj0GG8-10" vertex="1">
          <mxGeometry x="280" width="186" height="31" as="geometry">
            <mxRectangle width="186" height="31" as="alternateBounds" />
          </mxGeometry>
        </mxCell>
        <mxCell id="CV52lfoXkeO3yjH1Nklx-198" style="shape=tableRow;horizontal=0;startSize=0;swimlaneHead=0;swimlaneBody=0;top=0;left=0;bottom=0;right=0;dropTarget=0;collapsible=0;recursiveResize=0;expand=0;fontStyle=1;strokeColor=inherit;fillColor=#EAF2D3;" vertex="1" parent="CQehMLbI-TvT4RRxddDj-146">
          <mxGeometry y="253" width="466" height="31" as="geometry" />
        </mxCell>
        <mxCell id="CV52lfoXkeO3yjH1Nklx-199" value="rgb_blue" style="connectable=0;recursiveResize=0;whiteSpace=wrap;html=1;strokeColor=inherit;fillColor=none;" vertex="1" parent="CV52lfoXkeO3yjH1Nklx-198">
          <mxGeometry width="93" height="31" as="geometry">
            <mxRectangle width="93" height="31" as="alternateBounds" />
          </mxGeometry>
        </mxCell>
        <mxCell id="CV52lfoXkeO3yjH1Nklx-200" value="8" style="connectable=0;recursiveResize=0;whiteSpace=wrap;html=1;strokeColor=inherit;fillColor=none;" vertex="1" parent="CV52lfoXkeO3yjH1Nklx-198">
          <mxGeometry x="93" width="93" height="31" as="geometry">
            <mxRectangle width="93" height="31" as="alternateBounds" />
          </mxGeometry>
        </mxCell>
        <mxCell id="CV52lfoXkeO3yjH1Nklx-201" value="输入" style="connectable=0;recursiveResize=0;whiteSpace=wrap;html=1;strokeColor=inherit;fillColor=none;" vertex="1" parent="CV52lfoXkeO3yjH1Nklx-198">
          <mxGeometry x="186" width="94" height="31" as="geometry">
            <mxRectangle width="94" height="31" as="alternateBounds" />
          </mxGeometry>
        </mxCell>
        <mxCell id="CV52lfoXkeO3yjH1Nklx-202" value="蓝色通道数据" style="connectable=0;recursiveResize=0;whiteSpace=wrap;html=1;strokeColor=inherit;fillColor=none;" vertex="1" parent="CV52lfoXkeO3yjH1Nklx-198">
          <mxGeometry x="280" width="186" height="31" as="geometry">
            <mxRectangle width="186" height="31" as="alternateBounds" />
          </mxGeometry>
        </mxCell>
        <mxCell id="CV52lfoXkeO3yjH1Nklx-203" style="shape=tableRow;horizontal=0;startSize=0;swimlaneHead=0;swimlaneBody=0;top=0;left=0;bottom=0;right=0;dropTarget=0;collapsible=0;recursiveResize=0;expand=0;fontStyle=1;strokeColor=inherit;fillColor=#EAF2D3;" vertex="1" parent="CQehMLbI-TvT4RRxddDj-146">
          <mxGeometry y="284" width="466" height="31" as="geometry" />
        </mxCell>
        <mxCell id="CV52lfoXkeO3yjH1Nklx-204" value="clk_5x" style="connectable=0;recursiveResize=0;whiteSpace=wrap;html=1;strokeColor=inherit;fillColor=default;" vertex="1" parent="CV52lfoXkeO3yjH1Nklx-203">
          <mxGeometry width="93" height="31" as="geometry">
            <mxRectangle width="93" height="31" as="alternateBounds" />
          </mxGeometry>
        </mxCell>
        <mxCell id="CV52lfoXkeO3yjH1Nklx-205" value="1" style="connectable=0;recursiveResize=0;whiteSpace=wrap;html=1;strokeColor=inherit;" vertex="1" parent="CV52lfoXkeO3yjH1Nklx-203">
          <mxGeometry x="93" width="93" height="31" as="geometry">
            <mxRectangle width="93" height="31" as="alternateBounds" />
          </mxGeometry>
        </mxCell>
        <mxCell id="CV52lfoXkeO3yjH1Nklx-206" value="输入" style="connectable=0;recursiveResize=0;whiteSpace=wrap;html=1;strokeColor=inherit;" vertex="1" parent="CV52lfoXkeO3yjH1Nklx-203">
          <mxGeometry x="186" width="94" height="31" as="geometry">
            <mxRectangle width="94" height="31" as="alternateBounds" />
          </mxGeometry>
        </mxCell>
        <mxCell id="CV52lfoXkeO3yjH1Nklx-207" value="125MHz工作时钟" style="connectable=0;recursiveResize=0;whiteSpace=wrap;html=1;strokeColor=inherit;" vertex="1" parent="CV52lfoXkeO3yjH1Nklx-203">
          <mxGeometry x="280" width="186" height="31" as="geometry">
            <mxRectangle width="186" height="31" as="alternateBounds" />
          </mxGeometry>
        </mxCell>
        <mxCell id="CV52lfoXkeO3yjH1Nklx-208" style="shape=tableRow;horizontal=0;startSize=0;swimlaneHead=0;swimlaneBody=0;top=0;left=0;bottom=0;right=0;dropTarget=0;collapsible=0;recursiveResize=0;expand=0;fontStyle=1;strokeColor=inherit;fillColor=#EAF2D3;" vertex="1" parent="CQehMLbI-TvT4RRxddDj-146">
          <mxGeometry y="315" width="466" height="31" as="geometry" />
        </mxCell>
        <mxCell id="CV52lfoXkeO3yjH1Nklx-209" value="hdmi_r_p" style="connectable=0;recursiveResize=0;whiteSpace=wrap;html=1;strokeColor=inherit;fillColor=none;" vertex="1" parent="CV52lfoXkeO3yjH1Nklx-208">
          <mxGeometry width="93" height="31" as="geometry">
            <mxRectangle width="93" height="31" as="alternateBounds" />
          </mxGeometry>
        </mxCell>
        <mxCell id="CV52lfoXkeO3yjH1Nklx-210" value="1" style="connectable=0;recursiveResize=0;whiteSpace=wrap;html=1;strokeColor=inherit;fillColor=none;" vertex="1" parent="CV52lfoXkeO3yjH1Nklx-208">
          <mxGeometry x="93" width="93" height="31" as="geometry">
            <mxRectangle width="93" height="31" as="alternateBounds" />
          </mxGeometry>
        </mxCell>
        <mxCell id="CV52lfoXkeO3yjH1Nklx-211" value="输出" style="connectable=0;recursiveResize=0;whiteSpace=wrap;html=1;strokeColor=inherit;fillColor=none;" vertex="1" parent="CV52lfoXkeO3yjH1Nklx-208">
          <mxGeometry x="186" width="94" height="31" as="geometry">
            <mxRectangle width="94" height="31" as="alternateBounds" />
          </mxGeometry>
        </mxCell>
        <mxCell id="CV52lfoXkeO3yjH1Nklx-212" value="红色串行差分信号" style="connectable=0;recursiveResize=0;whiteSpace=wrap;html=1;strokeColor=inherit;fillColor=none;" vertex="1" parent="CV52lfoXkeO3yjH1Nklx-208">
          <mxGeometry x="280" width="186" height="31" as="geometry">
            <mxRectangle width="186" height="31" as="alternateBounds" />
          </mxGeometry>
        </mxCell>
        <mxCell id="CV52lfoXkeO3yjH1Nklx-213" style="shape=tableRow;horizontal=0;startSize=0;swimlaneHead=0;swimlaneBody=0;top=0;left=0;bottom=0;right=0;dropTarget=0;collapsible=0;recursiveResize=0;expand=0;fontStyle=1;strokeColor=inherit;fillColor=#EAF2D3;" vertex="1" parent="CQehMLbI-TvT4RRxddDj-146">
          <mxGeometry y="346" width="466" height="31" as="geometry" />
        </mxCell>
        <mxCell id="CV52lfoXkeO3yjH1Nklx-214" value="hdmi_r_n" style="connectable=0;recursiveResize=0;whiteSpace=wrap;html=1;strokeColor=inherit;fillColor=default;" vertex="1" parent="CV52lfoXkeO3yjH1Nklx-213">
          <mxGeometry width="93" height="31" as="geometry">
            <mxRectangle width="93" height="31" as="alternateBounds" />
          </mxGeometry>
        </mxCell>
        <mxCell id="CV52lfoXkeO3yjH1Nklx-215" value="1" style="connectable=0;recursiveResize=0;whiteSpace=wrap;html=1;strokeColor=inherit;" vertex="1" parent="CV52lfoXkeO3yjH1Nklx-213">
          <mxGeometry x="93" width="93" height="31" as="geometry">
            <mxRectangle width="93" height="31" as="alternateBounds" />
          </mxGeometry>
        </mxCell>
        <mxCell id="CV52lfoXkeO3yjH1Nklx-216" value="输出" style="connectable=0;recursiveResize=0;whiteSpace=wrap;html=1;strokeColor=inherit;" vertex="1" parent="CV52lfoXkeO3yjH1Nklx-213">
          <mxGeometry x="186" width="94" height="31" as="geometry">
            <mxRectangle width="94" height="31" as="alternateBounds" />
          </mxGeometry>
        </mxCell>
        <mxCell id="CV52lfoXkeO3yjH1Nklx-217" value="红色串行差分信号" style="connectable=0;recursiveResize=0;whiteSpace=wrap;html=1;strokeColor=inherit;" vertex="1" parent="CV52lfoXkeO3yjH1Nklx-213">
          <mxGeometry x="280" width="186" height="31" as="geometry">
            <mxRectangle width="186" height="31" as="alternateBounds" />
          </mxGeometry>
        </mxCell>
        <mxCell id="CV52lfoXkeO3yjH1Nklx-218" style="shape=tableRow;horizontal=0;startSize=0;swimlaneHead=0;swimlaneBody=0;top=0;left=0;bottom=0;right=0;dropTarget=0;collapsible=0;recursiveResize=0;expand=0;fontStyle=1;strokeColor=inherit;fillColor=#EAF2D3;" vertex="1" parent="CQehMLbI-TvT4RRxddDj-146">
          <mxGeometry y="377" width="466" height="31" as="geometry" />
        </mxCell>
        <mxCell id="CV52lfoXkeO3yjH1Nklx-219" value="hdmi_g_p" style="connectable=0;recursiveResize=0;whiteSpace=wrap;html=1;strokeColor=inherit;fillColor=none;" vertex="1" parent="CV52lfoXkeO3yjH1Nklx-218">
          <mxGeometry width="93" height="31" as="geometry">
            <mxRectangle width="93" height="31" as="alternateBounds" />
          </mxGeometry>
        </mxCell>
        <mxCell id="CV52lfoXkeO3yjH1Nklx-220" value="1" style="connectable=0;recursiveResize=0;whiteSpace=wrap;html=1;strokeColor=inherit;fillColor=none;" vertex="1" parent="CV52lfoXkeO3yjH1Nklx-218">
          <mxGeometry x="93" width="93" height="31" as="geometry">
            <mxRectangle width="93" height="31" as="alternateBounds" />
          </mxGeometry>
        </mxCell>
        <mxCell id="CV52lfoXkeO3yjH1Nklx-221" value="输出" style="connectable=0;recursiveResize=0;whiteSpace=wrap;html=1;strokeColor=inherit;fillColor=none;" vertex="1" parent="CV52lfoXkeO3yjH1Nklx-218">
          <mxGeometry x="186" width="94" height="31" as="geometry">
            <mxRectangle width="94" height="31" as="alternateBounds" />
          </mxGeometry>
        </mxCell>
        <mxCell id="CV52lfoXkeO3yjH1Nklx-222" value="绿色串行差分信号" style="connectable=0;recursiveResize=0;whiteSpace=wrap;html=1;strokeColor=inherit;fillColor=none;" vertex="1" parent="CV52lfoXkeO3yjH1Nklx-218">
          <mxGeometry x="280" width="186" height="31" as="geometry">
            <mxRectangle width="186" height="31" as="alternateBounds" />
          </mxGeometry>
        </mxCell>
        <mxCell id="CV52lfoXkeO3yjH1Nklx-223" style="shape=tableRow;horizontal=0;startSize=0;swimlaneHead=0;swimlaneBody=0;top=0;left=0;bottom=0;right=0;dropTarget=0;collapsible=0;recursiveResize=0;expand=0;fontStyle=1;strokeColor=inherit;fillColor=#EAF2D3;" vertex="1" parent="CQehMLbI-TvT4RRxddDj-146">
          <mxGeometry y="408" width="466" height="31" as="geometry" />
        </mxCell>
        <mxCell id="CV52lfoXkeO3yjH1Nklx-224" value="hdmi_g_n" style="connectable=0;recursiveResize=0;whiteSpace=wrap;html=1;strokeColor=inherit;fillColor=default;" vertex="1" parent="CV52lfoXkeO3yjH1Nklx-223">
          <mxGeometry width="93" height="31" as="geometry">
            <mxRectangle width="93" height="31" as="alternateBounds" />
          </mxGeometry>
        </mxCell>
        <mxCell id="CV52lfoXkeO3yjH1Nklx-225" value="1" style="connectable=0;recursiveResize=0;whiteSpace=wrap;html=1;strokeColor=inherit;" vertex="1" parent="CV52lfoXkeO3yjH1Nklx-223">
          <mxGeometry x="93" width="93" height="31" as="geometry">
            <mxRectangle width="93" height="31" as="alternateBounds" />
          </mxGeometry>
        </mxCell>
        <mxCell id="CV52lfoXkeO3yjH1Nklx-226" value="输出" style="connectable=0;recursiveResize=0;whiteSpace=wrap;html=1;strokeColor=inherit;" vertex="1" parent="CV52lfoXkeO3yjH1Nklx-223">
          <mxGeometry x="186" width="94" height="31" as="geometry">
            <mxRectangle width="94" height="31" as="alternateBounds" />
          </mxGeometry>
        </mxCell>
        <mxCell id="CV52lfoXkeO3yjH1Nklx-227" value="绿色串行差分信号" style="connectable=0;recursiveResize=0;whiteSpace=wrap;html=1;strokeColor=inherit;" vertex="1" parent="CV52lfoXkeO3yjH1Nklx-223">
          <mxGeometry x="280" width="186" height="31" as="geometry">
            <mxRectangle width="186" height="31" as="alternateBounds" />
          </mxGeometry>
        </mxCell>
        <mxCell id="CV52lfoXkeO3yjH1Nklx-228" style="shape=tableRow;horizontal=0;startSize=0;swimlaneHead=0;swimlaneBody=0;top=0;left=0;bottom=0;right=0;dropTarget=0;collapsible=0;recursiveResize=0;expand=0;fontStyle=1;strokeColor=inherit;fillColor=#EAF2D3;" vertex="1" parent="CQehMLbI-TvT4RRxddDj-146">
          <mxGeometry y="439" width="466" height="31" as="geometry" />
        </mxCell>
        <mxCell id="CV52lfoXkeO3yjH1Nklx-229" value="hdmi_b_p" style="connectable=0;recursiveResize=0;whiteSpace=wrap;html=1;strokeColor=inherit;fillColor=none;" vertex="1" parent="CV52lfoXkeO3yjH1Nklx-228">
          <mxGeometry width="93" height="31" as="geometry">
            <mxRectangle width="93" height="31" as="alternateBounds" />
          </mxGeometry>
        </mxCell>
        <mxCell id="CV52lfoXkeO3yjH1Nklx-230" value="1" style="connectable=0;recursiveResize=0;whiteSpace=wrap;html=1;strokeColor=inherit;fillColor=none;" vertex="1" parent="CV52lfoXkeO3yjH1Nklx-228">
          <mxGeometry x="93" width="93" height="31" as="geometry">
            <mxRectangle width="93" height="31" as="alternateBounds" />
          </mxGeometry>
        </mxCell>
        <mxCell id="CV52lfoXkeO3yjH1Nklx-231" value="输出" style="connectable=0;recursiveResize=0;whiteSpace=wrap;html=1;strokeColor=inherit;fillColor=none;" vertex="1" parent="CV52lfoXkeO3yjH1Nklx-228">
          <mxGeometry x="186" width="94" height="31" as="geometry">
            <mxRectangle width="94" height="31" as="alternateBounds" />
          </mxGeometry>
        </mxCell>
        <mxCell id="CV52lfoXkeO3yjH1Nklx-232" value="蓝色串行差分信号" style="connectable=0;recursiveResize=0;whiteSpace=wrap;html=1;strokeColor=inherit;fillColor=none;" vertex="1" parent="CV52lfoXkeO3yjH1Nklx-228">
          <mxGeometry x="280" width="186" height="31" as="geometry">
            <mxRectangle width="186" height="31" as="alternateBounds" />
          </mxGeometry>
        </mxCell>
        <mxCell id="CV52lfoXkeO3yjH1Nklx-233" style="shape=tableRow;horizontal=0;startSize=0;swimlaneHead=0;swimlaneBody=0;top=0;left=0;bottom=0;right=0;dropTarget=0;collapsible=0;recursiveResize=0;expand=0;fontStyle=1;strokeColor=inherit;fillColor=#EAF2D3;" vertex="1" parent="CQehMLbI-TvT4RRxddDj-146">
          <mxGeometry y="470" width="466" height="31" as="geometry" />
        </mxCell>
        <mxCell id="CV52lfoXkeO3yjH1Nklx-234" value="hdmi_b_n" style="connectable=0;recursiveResize=0;whiteSpace=wrap;html=1;strokeColor=inherit;fillColor=default;" vertex="1" parent="CV52lfoXkeO3yjH1Nklx-233">
          <mxGeometry width="93" height="31" as="geometry">
            <mxRectangle width="93" height="31" as="alternateBounds" />
          </mxGeometry>
        </mxCell>
        <mxCell id="CV52lfoXkeO3yjH1Nklx-235" value="1" style="connectable=0;recursiveResize=0;whiteSpace=wrap;html=1;strokeColor=inherit;" vertex="1" parent="CV52lfoXkeO3yjH1Nklx-233">
          <mxGeometry x="93" width="93" height="31" as="geometry">
            <mxRectangle width="93" height="31" as="alternateBounds" />
          </mxGeometry>
        </mxCell>
        <mxCell id="CV52lfoXkeO3yjH1Nklx-236" value="输出" style="connectable=0;recursiveResize=0;whiteSpace=wrap;html=1;strokeColor=inherit;" vertex="1" parent="CV52lfoXkeO3yjH1Nklx-233">
          <mxGeometry x="186" width="94" height="31" as="geometry">
            <mxRectangle width="94" height="31" as="alternateBounds" />
          </mxGeometry>
        </mxCell>
        <mxCell id="CV52lfoXkeO3yjH1Nklx-237" value="蓝色串行差分信号" style="connectable=0;recursiveResize=0;whiteSpace=wrap;html=1;strokeColor=inherit;" vertex="1" parent="CV52lfoXkeO3yjH1Nklx-233">
          <mxGeometry x="280" width="186" height="31" as="geometry">
            <mxRectangle width="186" height="31" as="alternateBounds" />
          </mxGeometry>
        </mxCell>
        <mxCell id="CV52lfoXkeO3yjH1Nklx-238" style="shape=tableRow;horizontal=0;startSize=0;swimlaneHead=0;swimlaneBody=0;top=0;left=0;bottom=0;right=0;dropTarget=0;collapsible=0;recursiveResize=0;expand=0;fontStyle=1;strokeColor=inherit;fillColor=#EAF2D3;" vertex="1" parent="CQehMLbI-TvT4RRxddDj-146">
          <mxGeometry y="501" width="466" height="31" as="geometry" />
        </mxCell>
        <mxCell id="CV52lfoXkeO3yjH1Nklx-239" value="hdmi_clk_p" style="connectable=0;recursiveResize=0;whiteSpace=wrap;html=1;strokeColor=inherit;fillColor=none;" vertex="1" parent="CV52lfoXkeO3yjH1Nklx-238">
          <mxGeometry width="93" height="31" as="geometry">
            <mxRectangle width="93" height="31" as="alternateBounds" />
          </mxGeometry>
        </mxCell>
        <mxCell id="CV52lfoXkeO3yjH1Nklx-240" value="1" style="connectable=0;recursiveResize=0;whiteSpace=wrap;html=1;strokeColor=inherit;fillColor=none;" vertex="1" parent="CV52lfoXkeO3yjH1Nklx-238">
          <mxGeometry x="93" width="93" height="31" as="geometry">
            <mxRectangle width="93" height="31" as="alternateBounds" />
          </mxGeometry>
        </mxCell>
        <mxCell id="CV52lfoXkeO3yjH1Nklx-241" value="输出" style="connectable=0;recursiveResize=0;whiteSpace=wrap;html=1;strokeColor=inherit;fillColor=none;" vertex="1" parent="CV52lfoXkeO3yjH1Nklx-238">
          <mxGeometry x="186" width="94" height="31" as="geometry">
            <mxRectangle width="94" height="31" as="alternateBounds" />
          </mxGeometry>
        </mxCell>
        <mxCell id="CV52lfoXkeO3yjH1Nklx-242" value="HDMI时钟差分信号" style="connectable=0;recursiveResize=0;whiteSpace=wrap;html=1;strokeColor=inherit;fillColor=none;" vertex="1" parent="CV52lfoXkeO3yjH1Nklx-238">
          <mxGeometry x="280" width="186" height="31" as="geometry">
            <mxRectangle width="186" height="31" as="alternateBounds" />
          </mxGeometry>
        </mxCell>
        <mxCell id="CQehMLbI-TvT4RRxddDj-182" style="shape=tableRow;horizontal=0;startSize=0;swimlaneHead=0;swimlaneBody=0;top=0;left=0;bottom=0;right=0;dropTarget=0;collapsible=0;recursiveResize=0;expand=0;fontStyle=1;strokeColor=inherit;fillColor=#EAF2D3;" parent="CQehMLbI-TvT4RRxddDj-146" vertex="1">
          <mxGeometry y="532" width="466" height="31" as="geometry" />
        </mxCell>
        <mxCell id="CQehMLbI-TvT4RRxddDj-183" value="hdmi_clk_n" style="connectable=0;recursiveResize=0;whiteSpace=wrap;html=1;strokeColor=inherit;fillColor=default;" parent="CQehMLbI-TvT4RRxddDj-182" vertex="1">
          <mxGeometry width="93" height="31" as="geometry">
            <mxRectangle width="93" height="31" as="alternateBounds" />
          </mxGeometry>
        </mxCell>
        <mxCell id="CQehMLbI-TvT4RRxddDj-184" value="1" style="connectable=0;recursiveResize=0;whiteSpace=wrap;html=1;strokeColor=inherit;" parent="CQehMLbI-TvT4RRxddDj-182" vertex="1">
          <mxGeometry x="93" width="93" height="31" as="geometry">
            <mxRectangle width="93" height="31" as="alternateBounds" />
          </mxGeometry>
        </mxCell>
        <mxCell id="CQehMLbI-TvT4RRxddDj-185" value="输出" style="connectable=0;recursiveResize=0;whiteSpace=wrap;html=1;strokeColor=inherit;" parent="CQehMLbI-TvT4RRxddDj-182" vertex="1">
          <mxGeometry x="186" width="94" height="31" as="geometry">
            <mxRectangle width="94" height="31" as="alternateBounds" />
          </mxGeometry>
        </mxCell>
        <mxCell id="CQehMLbI-TvT4RRxddDj-186" value="HDMI时钟差分信号" style="connectable=0;recursiveResize=0;whiteSpace=wrap;html=1;strokeColor=inherit;" parent="CQehMLbI-TvT4RRxddDj-182" vertex="1">
          <mxGeometry x="280" width="186" height="31" as="geometry">
            <mxRectangle width="186" height="31" as="alternateBounds" />
          </mxGeometry>
        </mxCell>
        <mxCell id="CQehMLbI-TvT4RRxddDj-194" value="Assets" style="childLayout=tableLayout;recursiveResize=0;strokeColor=#98bf21;fillColor=#A7C942;shadow=1;" parent="1" vertex="1">
          <mxGeometry x="-500" y="240" width="480" height="191" as="geometry" />
        </mxCell>
        <mxCell id="CQehMLbI-TvT4RRxddDj-195" style="shape=tableRow;horizontal=0;startSize=0;swimlaneHead=0;swimlaneBody=0;top=0;left=0;bottom=0;right=0;dropTarget=0;collapsible=0;recursiveResize=0;expand=0;fontStyle=0;strokeColor=inherit;fillColor=#ffffff;" parent="CQehMLbI-TvT4RRxddDj-194" vertex="1">
          <mxGeometry width="480" height="33" as="geometry" />
        </mxCell>
        <mxCell id="CQehMLbI-TvT4RRxddDj-196" value="信号名" style="connectable=0;recursiveResize=0;strokeColor=inherit;fillColor=#A7C942;align=center;fontStyle=1;fontColor=#FFFFFF;html=1;" parent="CQehMLbI-TvT4RRxddDj-195" vertex="1">
          <mxGeometry width="107" height="33" as="geometry">
            <mxRectangle width="107" height="33" as="alternateBounds" />
          </mxGeometry>
        </mxCell>
        <mxCell id="CQehMLbI-TvT4RRxddDj-197" value="位宽" style="connectable=0;recursiveResize=0;strokeColor=inherit;fillColor=#A7C942;align=center;fontStyle=1;fontColor=#FFFFFF;html=1;" parent="CQehMLbI-TvT4RRxddDj-195" vertex="1">
          <mxGeometry x="107" width="107" height="33" as="geometry">
            <mxRectangle width="107" height="33" as="alternateBounds" />
          </mxGeometry>
        </mxCell>
        <mxCell id="CQehMLbI-TvT4RRxddDj-198" value="方向" style="connectable=0;recursiveResize=0;strokeColor=inherit;fillColor=#A7C942;align=center;fontStyle=1;fontColor=#FFFFFF;html=1;" parent="CQehMLbI-TvT4RRxddDj-195" vertex="1">
          <mxGeometry x="214" width="109" height="33" as="geometry">
            <mxRectangle width="109" height="33" as="alternateBounds" />
          </mxGeometry>
        </mxCell>
        <mxCell id="CQehMLbI-TvT4RRxddDj-199" value="端口说明" style="connectable=0;recursiveResize=0;strokeColor=inherit;fillColor=#A7C942;align=center;fontStyle=1;fontColor=#FFFFFF;html=1;" parent="CQehMLbI-TvT4RRxddDj-195" vertex="1">
          <mxGeometry x="323" width="157" height="33" as="geometry">
            <mxRectangle width="157" height="33" as="alternateBounds" />
          </mxGeometry>
        </mxCell>
        <mxCell id="CQehMLbI-TvT4RRxddDj-200" value="" style="shape=tableRow;horizontal=0;startSize=0;swimlaneHead=0;swimlaneBody=0;top=0;left=0;bottom=0;right=0;dropTarget=0;collapsible=0;recursiveResize=0;expand=0;fontStyle=0;strokeColor=inherit;fillColor=#ffffff;" parent="CQehMLbI-TvT4RRxddDj-194" vertex="1">
          <mxGeometry y="33" width="480" height="32" as="geometry" />
        </mxCell>
        <mxCell id="CQehMLbI-TvT4RRxddDj-201" value="sys_clk" style="connectable=0;recursiveResize=0;strokeColor=inherit;fillColor=inherit;align=center;whiteSpace=wrap;html=1;" parent="CQehMLbI-TvT4RRxddDj-200" vertex="1">
          <mxGeometry width="107" height="32" as="geometry">
            <mxRectangle width="107" height="32" as="alternateBounds" />
          </mxGeometry>
        </mxCell>
        <mxCell id="CQehMLbI-TvT4RRxddDj-202" value="1" style="connectable=0;recursiveResize=0;strokeColor=inherit;fillColor=inherit;align=center;whiteSpace=wrap;html=1;" parent="CQehMLbI-TvT4RRxddDj-200" vertex="1">
          <mxGeometry x="107" width="107" height="32" as="geometry">
            <mxRectangle width="107" height="32" as="alternateBounds" />
          </mxGeometry>
        </mxCell>
        <mxCell id="CQehMLbI-TvT4RRxddDj-203" value="输入" style="connectable=0;recursiveResize=0;strokeColor=inherit;fillColor=inherit;align=center;whiteSpace=wrap;html=1;" parent="CQehMLbI-TvT4RRxddDj-200" vertex="1">
          <mxGeometry x="214" width="109" height="32" as="geometry">
            <mxRectangle width="109" height="32" as="alternateBounds" />
          </mxGeometry>
        </mxCell>
        <mxCell id="CQehMLbI-TvT4RRxddDj-204" value="系统时钟 50MHz" style="connectable=0;recursiveResize=0;strokeColor=inherit;fillColor=inherit;align=center;whiteSpace=wrap;html=1;" parent="CQehMLbI-TvT4RRxddDj-200" vertex="1">
          <mxGeometry x="323" width="157" height="32" as="geometry">
            <mxRectangle width="157" height="32" as="alternateBounds" />
          </mxGeometry>
        </mxCell>
        <mxCell id="CQehMLbI-TvT4RRxddDj-205" value="" style="shape=tableRow;horizontal=0;startSize=0;swimlaneHead=0;swimlaneBody=0;top=0;left=0;bottom=0;right=0;dropTarget=0;collapsible=0;recursiveResize=0;expand=0;fontStyle=1;strokeColor=inherit;fillColor=#EAF2D3;" parent="CQehMLbI-TvT4RRxddDj-194" vertex="1">
          <mxGeometry y="65" width="480" height="31" as="geometry" />
        </mxCell>
        <mxCell id="CQehMLbI-TvT4RRxddDj-206" value="rst_n" style="connectable=0;recursiveResize=0;strokeColor=inherit;fillColor=inherit;whiteSpace=wrap;html=1;" parent="CQehMLbI-TvT4RRxddDj-205" vertex="1">
          <mxGeometry width="107" height="31" as="geometry">
            <mxRectangle width="107" height="31" as="alternateBounds" />
          </mxGeometry>
        </mxCell>
        <mxCell id="CQehMLbI-TvT4RRxddDj-207" value="1" style="connectable=0;recursiveResize=0;strokeColor=inherit;fillColor=inherit;whiteSpace=wrap;html=1;" parent="CQehMLbI-TvT4RRxddDj-205" vertex="1">
          <mxGeometry x="107" width="107" height="31" as="geometry">
            <mxRectangle width="107" height="31" as="alternateBounds" />
          </mxGeometry>
        </mxCell>
        <mxCell id="CQehMLbI-TvT4RRxddDj-208" value="输入" style="connectable=0;recursiveResize=0;strokeColor=inherit;fillColor=inherit;whiteSpace=wrap;html=1;" parent="CQehMLbI-TvT4RRxddDj-205" vertex="1">
          <mxGeometry x="214" width="109" height="31" as="geometry">
            <mxRectangle width="109" height="31" as="alternateBounds" />
          </mxGeometry>
        </mxCell>
        <mxCell id="CQehMLbI-TvT4RRxddDj-209" value="复位，低电平有效" style="connectable=0;recursiveResize=0;strokeColor=inherit;fillColor=inherit;whiteSpace=wrap;html=1;" parent="CQehMLbI-TvT4RRxddDj-205" vertex="1">
          <mxGeometry x="323" width="157" height="31" as="geometry">
            <mxRectangle width="157" height="31" as="alternateBounds" />
          </mxGeometry>
        </mxCell>
        <mxCell id="CQehMLbI-TvT4RRxddDj-210" value="" style="shape=tableRow;horizontal=0;startSize=0;swimlaneHead=0;swimlaneBody=0;top=0;left=0;bottom=0;right=0;dropTarget=0;collapsible=0;recursiveResize=0;expand=0;fontStyle=0;strokeColor=inherit;fillColor=#ffffff;" parent="CQehMLbI-TvT4RRxddDj-194" vertex="1">
          <mxGeometry y="96" width="480" height="33" as="geometry" />
        </mxCell>
        <mxCell id="CQehMLbI-TvT4RRxddDj-211" value="c0_1x" style="connectable=0;recursiveResize=0;strokeColor=inherit;fillColor=inherit;fontStyle=0;align=center;whiteSpace=wrap;html=1;" parent="CQehMLbI-TvT4RRxddDj-210" vertex="1">
          <mxGeometry width="107" height="33" as="geometry">
            <mxRectangle width="107" height="33" as="alternateBounds" />
          </mxGeometry>
        </mxCell>
        <mxCell id="CQehMLbI-TvT4RRxddDj-212" value="1" style="connectable=0;recursiveResize=0;strokeColor=inherit;fillColor=inherit;fontStyle=0;align=center;whiteSpace=wrap;html=1;" parent="CQehMLbI-TvT4RRxddDj-210" vertex="1">
          <mxGeometry x="107" width="107" height="33" as="geometry">
            <mxRectangle width="107" height="33" as="alternateBounds" />
          </mxGeometry>
        </mxCell>
        <mxCell id="CQehMLbI-TvT4RRxddDj-213" value="输出" style="connectable=0;recursiveResize=0;strokeColor=inherit;fillColor=inherit;fontStyle=0;align=center;whiteSpace=wrap;html=1;" parent="CQehMLbI-TvT4RRxddDj-210" vertex="1">
          <mxGeometry x="214" width="109" height="33" as="geometry">
            <mxRectangle width="109" height="33" as="alternateBounds" />
          </mxGeometry>
        </mxCell>
        <mxCell id="CQehMLbI-TvT4RRxddDj-214" value="vga，hdmi工作时钟，25MHz" style="connectable=0;recursiveResize=0;strokeColor=inherit;fillColor=inherit;fontStyle=0;align=center;whiteSpace=wrap;html=1;" parent="CQehMLbI-TvT4RRxddDj-210" vertex="1">
          <mxGeometry x="323" width="157" height="33" as="geometry">
            <mxRectangle width="157" height="33" as="alternateBounds" />
          </mxGeometry>
        </mxCell>
        <mxCell id="CV52lfoXkeO3yjH1Nklx-105" value="" style="shape=tableRow;horizontal=0;startSize=0;swimlaneHead=0;swimlaneBody=0;top=0;left=0;bottom=0;right=0;dropTarget=0;collapsible=0;recursiveResize=0;expand=0;fontStyle=1;strokeColor=inherit;fillColor=#EAF2D3;" vertex="1" parent="CQehMLbI-TvT4RRxddDj-194">
          <mxGeometry y="129" width="480" height="31" as="geometry" />
        </mxCell>
        <mxCell id="CV52lfoXkeO3yjH1Nklx-106" value="c1_5x" style="connectable=0;recursiveResize=0;strokeColor=inherit;fillColor=inherit;whiteSpace=wrap;html=1;" vertex="1" parent="CV52lfoXkeO3yjH1Nklx-105">
          <mxGeometry width="107" height="31" as="geometry">
            <mxRectangle width="107" height="31" as="alternateBounds" />
          </mxGeometry>
        </mxCell>
        <mxCell id="CV52lfoXkeO3yjH1Nklx-107" value="1" style="connectable=0;recursiveResize=0;strokeColor=inherit;fillColor=inherit;whiteSpace=wrap;html=1;" vertex="1" parent="CV52lfoXkeO3yjH1Nklx-105">
          <mxGeometry x="107" width="107" height="31" as="geometry">
            <mxRectangle width="107" height="31" as="alternateBounds" />
          </mxGeometry>
        </mxCell>
        <mxCell id="CV52lfoXkeO3yjH1Nklx-108" value="输出" style="connectable=0;recursiveResize=0;strokeColor=inherit;fillColor=inherit;whiteSpace=wrap;html=1;" vertex="1" parent="CV52lfoXkeO3yjH1Nklx-105">
          <mxGeometry x="214" width="109" height="31" as="geometry">
            <mxRectangle width="109" height="31" as="alternateBounds" />
          </mxGeometry>
        </mxCell>
        <mxCell id="CV52lfoXkeO3yjH1Nklx-109" value="hdmi工作时钟，125MHz" style="connectable=0;recursiveResize=0;strokeColor=inherit;fillColor=inherit;whiteSpace=wrap;html=1;" vertex="1" parent="CV52lfoXkeO3yjH1Nklx-105">
          <mxGeometry x="323" width="157" height="31" as="geometry">
            <mxRectangle width="157" height="31" as="alternateBounds" />
          </mxGeometry>
        </mxCell>
        <mxCell id="CQehMLbI-TvT4RRxddDj-215" value="" style="shape=tableRow;horizontal=0;startSize=0;swimlaneHead=0;swimlaneBody=0;top=0;left=0;bottom=0;right=0;dropTarget=0;collapsible=0;recursiveResize=0;expand=0;fontStyle=1;strokeColor=inherit;fillColor=#EAF2D3;" parent="CQehMLbI-TvT4RRxddDj-194" vertex="1">
          <mxGeometry y="160" width="480" height="31" as="geometry" />
        </mxCell>
        <mxCell id="CQehMLbI-TvT4RRxddDj-216" value="locked" style="connectable=0;recursiveResize=0;whiteSpace=wrap;html=1;strokeColor=inherit;" parent="CQehMLbI-TvT4RRxddDj-215" vertex="1">
          <mxGeometry width="107" height="31" as="geometry">
            <mxRectangle width="107" height="31" as="alternateBounds" />
          </mxGeometry>
        </mxCell>
        <mxCell id="CQehMLbI-TvT4RRxddDj-217" value="1" style="connectable=0;recursiveResize=0;whiteSpace=wrap;html=1;strokeColor=inherit;" parent="CQehMLbI-TvT4RRxddDj-215" vertex="1">
          <mxGeometry x="107" width="107" height="31" as="geometry">
            <mxRectangle width="107" height="31" as="alternateBounds" />
          </mxGeometry>
        </mxCell>
        <mxCell id="CQehMLbI-TvT4RRxddDj-218" value="输出" style="connectable=0;recursiveResize=0;whiteSpace=wrap;html=1;strokeColor=inherit;" parent="CQehMLbI-TvT4RRxddDj-215" vertex="1">
          <mxGeometry x="214" width="109" height="31" as="geometry">
            <mxRectangle width="109" height="31" as="alternateBounds" />
          </mxGeometry>
        </mxCell>
        <mxCell id="CQehMLbI-TvT4RRxddDj-219" value="PLL已锁定信号" style="connectable=0;recursiveResize=0;whiteSpace=wrap;html=1;strokeColor=inherit;" parent="CQehMLbI-TvT4RRxddDj-215" vertex="1">
          <mxGeometry x="323" width="157" height="31" as="geometry">
            <mxRectangle width="157" height="31" as="alternateBounds" />
          </mxGeometry>
        </mxCell>
        <mxCell id="lO0y-kWSo12b2ms3qzik-9" value="Assets" style="childLayout=tableLayout;recursiveResize=0;strokeColor=#98bf21;fillColor=#A7C942;shadow=1;" parent="1" vertex="1">
          <mxGeometry x="870" y="730" width="510" height="160" as="geometry" />
        </mxCell>
        <mxCell id="lO0y-kWSo12b2ms3qzik-10" style="shape=tableRow;horizontal=0;startSize=0;swimlaneHead=0;swimlaneBody=0;top=0;left=0;bottom=0;right=0;dropTarget=0;collapsible=0;recursiveResize=0;expand=0;fontStyle=0;strokeColor=inherit;fillColor=#ffffff;" parent="lO0y-kWSo12b2ms3qzik-9" vertex="1">
          <mxGeometry width="510" height="33" as="geometry" />
        </mxCell>
        <mxCell id="lO0y-kWSo12b2ms3qzik-11" value="信号名" style="connectable=0;recursiveResize=0;strokeColor=inherit;fillColor=#A7C942;align=center;fontStyle=1;fontColor=#FFFFFF;html=1;" parent="lO0y-kWSo12b2ms3qzik-10" vertex="1">
          <mxGeometry width="107" height="33" as="geometry">
            <mxRectangle width="107" height="33" as="alternateBounds" />
          </mxGeometry>
        </mxCell>
        <mxCell id="lO0y-kWSo12b2ms3qzik-12" value="位宽" style="connectable=0;recursiveResize=0;strokeColor=inherit;fillColor=#A7C942;align=center;fontStyle=1;fontColor=#FFFFFF;html=1;" parent="lO0y-kWSo12b2ms3qzik-10" vertex="1">
          <mxGeometry x="107" width="107" height="33" as="geometry">
            <mxRectangle width="107" height="33" as="alternateBounds" />
          </mxGeometry>
        </mxCell>
        <mxCell id="lO0y-kWSo12b2ms3qzik-13" value="方向" style="connectable=0;recursiveResize=0;strokeColor=inherit;fillColor=#A7C942;align=center;fontStyle=1;fontColor=#FFFFFF;html=1;" parent="lO0y-kWSo12b2ms3qzik-10" vertex="1">
          <mxGeometry x="214" width="109" height="33" as="geometry">
            <mxRectangle width="109" height="33" as="alternateBounds" />
          </mxGeometry>
        </mxCell>
        <mxCell id="lO0y-kWSo12b2ms3qzik-14" value="端口说明" style="connectable=0;recursiveResize=0;strokeColor=inherit;fillColor=#A7C942;align=center;fontStyle=1;fontColor=#FFFFFF;html=1;" parent="lO0y-kWSo12b2ms3qzik-10" vertex="1">
          <mxGeometry x="323" width="187" height="33" as="geometry">
            <mxRectangle width="187" height="33" as="alternateBounds" />
          </mxGeometry>
        </mxCell>
        <mxCell id="lO0y-kWSo12b2ms3qzik-15" value="" style="shape=tableRow;horizontal=0;startSize=0;swimlaneHead=0;swimlaneBody=0;top=0;left=0;bottom=0;right=0;dropTarget=0;collapsible=0;recursiveResize=0;expand=0;fontStyle=0;strokeColor=inherit;fillColor=#ffffff;" parent="lO0y-kWSo12b2ms3qzik-9" vertex="1">
          <mxGeometry y="33" width="510" height="32" as="geometry" />
        </mxCell>
        <mxCell id="lO0y-kWSo12b2ms3qzik-16" value="&lt;span style=&quot;font-size: 11px; text-wrap: nowrap;&quot;&gt;clk_5x&lt;/span&gt;" style="connectable=0;recursiveResize=0;strokeColor=inherit;fillColor=inherit;align=center;whiteSpace=wrap;html=1;" parent="lO0y-kWSo12b2ms3qzik-15" vertex="1">
          <mxGeometry width="107" height="32" as="geometry">
            <mxRectangle width="107" height="32" as="alternateBounds" />
          </mxGeometry>
        </mxCell>
        <mxCell id="lO0y-kWSo12b2ms3qzik-17" value="1" style="connectable=0;recursiveResize=0;strokeColor=inherit;fillColor=inherit;align=center;whiteSpace=wrap;html=1;" parent="lO0y-kWSo12b2ms3qzik-15" vertex="1">
          <mxGeometry x="107" width="107" height="32" as="geometry">
            <mxRectangle width="107" height="32" as="alternateBounds" />
          </mxGeometry>
        </mxCell>
        <mxCell id="lO0y-kWSo12b2ms3qzik-18" value="输入" style="connectable=0;recursiveResize=0;strokeColor=inherit;fillColor=inherit;align=center;whiteSpace=wrap;html=1;" parent="lO0y-kWSo12b2ms3qzik-15" vertex="1">
          <mxGeometry x="214" width="109" height="32" as="geometry">
            <mxRectangle width="109" height="32" as="alternateBounds" />
          </mxGeometry>
        </mxCell>
        <mxCell id="lO0y-kWSo12b2ms3qzik-19" value="工作时钟25x5MHz" style="connectable=0;recursiveResize=0;strokeColor=inherit;fillColor=inherit;align=center;whiteSpace=wrap;html=1;" parent="lO0y-kWSo12b2ms3qzik-15" vertex="1">
          <mxGeometry x="323" width="187" height="32" as="geometry">
            <mxRectangle width="187" height="32" as="alternateBounds" />
          </mxGeometry>
        </mxCell>
        <mxCell id="lO0y-kWSo12b2ms3qzik-20" value="" style="shape=tableRow;horizontal=0;startSize=0;swimlaneHead=0;swimlaneBody=0;top=0;left=0;bottom=0;right=0;dropTarget=0;collapsible=0;recursiveResize=0;expand=0;fontStyle=1;strokeColor=inherit;fillColor=#EAF2D3;" parent="lO0y-kWSo12b2ms3qzik-9" vertex="1">
          <mxGeometry y="65" width="510" height="31" as="geometry" />
        </mxCell>
        <mxCell id="lO0y-kWSo12b2ms3qzik-21" value="&lt;span style=&quot;font-size: 11px; text-wrap: nowrap;&quot;&gt;par_data[9:0]&lt;/span&gt;" style="connectable=0;recursiveResize=0;strokeColor=inherit;fillColor=inherit;whiteSpace=wrap;html=1;" parent="lO0y-kWSo12b2ms3qzik-20" vertex="1">
          <mxGeometry width="107" height="31" as="geometry">
            <mxRectangle width="107" height="31" as="alternateBounds" />
          </mxGeometry>
        </mxCell>
        <mxCell id="lO0y-kWSo12b2ms3qzik-22" value="1" style="connectable=0;recursiveResize=0;strokeColor=inherit;fillColor=inherit;whiteSpace=wrap;html=1;" parent="lO0y-kWSo12b2ms3qzik-20" vertex="1">
          <mxGeometry x="107" width="107" height="31" as="geometry">
            <mxRectangle width="107" height="31" as="alternateBounds" />
          </mxGeometry>
        </mxCell>
        <mxCell id="lO0y-kWSo12b2ms3qzik-23" value="输入" style="connectable=0;recursiveResize=0;strokeColor=inherit;fillColor=inherit;whiteSpace=wrap;html=1;" parent="lO0y-kWSo12b2ms3qzik-20" vertex="1">
          <mxGeometry x="214" width="109" height="31" as="geometry">
            <mxRectangle width="109" height="31" as="alternateBounds" />
          </mxGeometry>
        </mxCell>
        <mxCell id="lO0y-kWSo12b2ms3qzik-24" value="输入10bit并行数据" style="connectable=0;recursiveResize=0;strokeColor=inherit;fillColor=inherit;whiteSpace=wrap;html=1;" parent="lO0y-kWSo12b2ms3qzik-20" vertex="1">
          <mxGeometry x="323" width="187" height="31" as="geometry">
            <mxRectangle width="187" height="31" as="alternateBounds" />
          </mxGeometry>
        </mxCell>
        <mxCell id="lO0y-kWSo12b2ms3qzik-25" value="" style="shape=tableRow;horizontal=0;startSize=0;swimlaneHead=0;swimlaneBody=0;top=0;left=0;bottom=0;right=0;dropTarget=0;collapsible=0;recursiveResize=0;expand=0;fontStyle=0;strokeColor=inherit;fillColor=#ffffff;" parent="lO0y-kWSo12b2ms3qzik-9" vertex="1">
          <mxGeometry y="96" width="510" height="33" as="geometry" />
        </mxCell>
        <mxCell id="lO0y-kWSo12b2ms3qzik-26" value="&lt;span style=&quot;font-size: 11px; text-wrap: nowrap;&quot;&gt;ser_data_p&lt;/span&gt;" style="connectable=0;recursiveResize=0;strokeColor=inherit;fillColor=inherit;fontStyle=0;align=center;whiteSpace=wrap;html=1;" parent="lO0y-kWSo12b2ms3qzik-25" vertex="1">
          <mxGeometry width="107" height="33" as="geometry">
            <mxRectangle width="107" height="33" as="alternateBounds" />
          </mxGeometry>
        </mxCell>
        <mxCell id="lO0y-kWSo12b2ms3qzik-27" value="1" style="connectable=0;recursiveResize=0;strokeColor=inherit;fillColor=inherit;fontStyle=0;align=center;whiteSpace=wrap;html=1;" parent="lO0y-kWSo12b2ms3qzik-25" vertex="1">
          <mxGeometry x="107" width="107" height="33" as="geometry">
            <mxRectangle width="107" height="33" as="alternateBounds" />
          </mxGeometry>
        </mxCell>
        <mxCell id="lO0y-kWSo12b2ms3qzik-28" value="输出" style="connectable=0;recursiveResize=0;strokeColor=inherit;fillColor=inherit;fontStyle=0;align=center;whiteSpace=wrap;html=1;" parent="lO0y-kWSo12b2ms3qzik-25" vertex="1">
          <mxGeometry x="214" width="109" height="33" as="geometry">
            <mxRectangle width="109" height="33" as="alternateBounds" />
          </mxGeometry>
        </mxCell>
        <mxCell id="lO0y-kWSo12b2ms3qzik-29" value="输出串行差分信号" style="connectable=0;recursiveResize=0;strokeColor=inherit;fillColor=inherit;fontStyle=0;align=center;whiteSpace=wrap;html=1;" parent="lO0y-kWSo12b2ms3qzik-25" vertex="1">
          <mxGeometry x="323" width="187" height="33" as="geometry">
            <mxRectangle width="187" height="33" as="alternateBounds" />
          </mxGeometry>
        </mxCell>
        <mxCell id="lO0y-kWSo12b2ms3qzik-35" value="" style="shape=tableRow;horizontal=0;startSize=0;swimlaneHead=0;swimlaneBody=0;top=0;left=0;bottom=0;right=0;dropTarget=0;collapsible=0;recursiveResize=0;expand=0;fontStyle=1;strokeColor=inherit;fillColor=#EAF2D3;" parent="lO0y-kWSo12b2ms3qzik-9" vertex="1">
          <mxGeometry y="129" width="510" height="31" as="geometry" />
        </mxCell>
        <mxCell id="lO0y-kWSo12b2ms3qzik-36" value="&lt;span style=&quot;font-size: 11px; text-wrap: nowrap;&quot;&gt;ser_data_n&lt;/span&gt;" style="connectable=0;recursiveResize=0;strokeColor=inherit;fillColor=inherit;whiteSpace=wrap;html=1;" parent="lO0y-kWSo12b2ms3qzik-35" vertex="1">
          <mxGeometry width="107" height="31" as="geometry">
            <mxRectangle width="107" height="31" as="alternateBounds" />
          </mxGeometry>
        </mxCell>
        <mxCell id="lO0y-kWSo12b2ms3qzik-37" value="1" style="connectable=0;recursiveResize=0;strokeColor=inherit;fillColor=inherit;whiteSpace=wrap;html=1;" parent="lO0y-kWSo12b2ms3qzik-35" vertex="1">
          <mxGeometry x="107" width="107" height="31" as="geometry">
            <mxRectangle width="107" height="31" as="alternateBounds" />
          </mxGeometry>
        </mxCell>
        <mxCell id="lO0y-kWSo12b2ms3qzik-38" value="输出" style="connectable=0;recursiveResize=0;strokeColor=inherit;fillColor=inherit;whiteSpace=wrap;html=1;" parent="lO0y-kWSo12b2ms3qzik-35" vertex="1">
          <mxGeometry x="214" width="109" height="31" as="geometry">
            <mxRectangle width="109" height="31" as="alternateBounds" />
          </mxGeometry>
        </mxCell>
        <mxCell id="lO0y-kWSo12b2ms3qzik-39" value="输出串行差分信号" style="connectable=0;recursiveResize=0;strokeColor=inherit;fillColor=inherit;whiteSpace=wrap;html=1;" parent="lO0y-kWSo12b2ms3qzik-35" vertex="1">
          <mxGeometry x="323" width="187" height="31" as="geometry">
            <mxRectangle width="187" height="31" as="alternateBounds" />
          </mxGeometry>
        </mxCell>
        <mxCell id="6DmCsKNVUbhP2ZlJ8aWh-1" value="" style="whiteSpace=wrap;html=1;rounded=1;fillColor=#ffe6cc;strokeColor=#d79b00;glass=0;shadow=1;arcSize=5;" parent="1" vertex="1">
          <mxGeometry x="110" y="-30" width="1030" height="440" as="geometry" />
        </mxCell>
        <mxCell id="6DmCsKNVUbhP2ZlJ8aWh-4" value="" style="rounded=1;whiteSpace=wrap;html=1;fillColor=#dae8fc;strokeColor=#6c8ebf;arcSize=5;" parent="1" vertex="1">
          <mxGeometry x="130" y="10" width="950" height="380" as="geometry" />
        </mxCell>
        <mxCell id="6DmCsKNVUbhP2ZlJ8aWh-3" value="&lt;font style=&quot;font-size: 24px;&quot;&gt;FPGA&lt;/font&gt;" style="rounded=0;whiteSpace=wrap;html=1;fillColor=none;strokeColor=none;" parent="1" vertex="1">
          <mxGeometry x="535" y="-30" width="150" height="40" as="geometry" />
        </mxCell>
        <mxCell id="6DmCsKNVUbhP2ZlJ8aWh-5" value="&lt;font style=&quot;font-size: 24px;&quot;&gt;hdmi_colorbar&lt;/font&gt;" style="rounded=0;whiteSpace=wrap;html=1;fillColor=none;strokeColor=none;" parent="1" vertex="1">
          <mxGeometry x="535" y="20" width="150" height="40" as="geometry" />
        </mxCell>
        <mxCell id="CQehMLbI-TvT4RRxddDj-187" value="&lt;font style=&quot;font-size: 16px;&quot;&gt;clk_gen&lt;/font&gt;" style="whiteSpace=wrap;html=1;fillColor=#d5e8d4;strokeColor=#82b366;" parent="1" vertex="1">
          <mxGeometry x="210" y="110" width="110" height="80" as="geometry" />
        </mxCell>
        <mxCell id="CQehMLbI-TvT4RRxddDj-188" value="&lt;font style=&quot;font-size: 12px;&quot;&gt;sys_clk&lt;/font&gt;" style="endArrow=block;html=1;rounded=0;entryX=0;entryY=0.25;entryDx=0;entryDy=0;verticalAlign=bottom;fillColor=none;labelBackgroundColor=none;strokeWidth=1;endFill=1;endSize=4;startSize=4;" parent="1" target="CQehMLbI-TvT4RRxddDj-187" edge="1">
          <mxGeometry x="0.5556" width="50" height="50" relative="1" as="geometry">
            <mxPoint x="30" y="130" as="sourcePoint" />
            <mxPoint x="119.99999999999989" y="130" as="targetPoint" />
            <mxPoint as="offset" />
          </mxGeometry>
        </mxCell>
        <mxCell id="lO0y-kWSo12b2ms3qzik-1" value="&lt;font style=&quot;font-size: 16px;&quot;&gt;vga_image_gen&lt;/font&gt;" style="whiteSpace=wrap;html=1;fillColor=#b0e3e6;strokeColor=#0e8088;" parent="1" vertex="1">
          <mxGeometry x="540" y="80" width="140" height="110" as="geometry" />
        </mxCell>
        <mxCell id="CQehMLbI-TvT4RRxddDj-1" value="&lt;font style=&quot;font-size: 16px;&quot;&gt;vga_timing_ctrl&lt;/font&gt;" style="whiteSpace=wrap;html=1;fillColor=#d0cee2;strokeColor=#56517e;" parent="1" vertex="1">
          <mxGeometry x="540" y="240" width="140" height="130" as="geometry" />
        </mxCell>
        <mxCell id="6DmCsKNVUbhP2ZlJ8aWh-9" value="&lt;font style=&quot;font-size: 12px;&quot;&gt;sys_rst_n&lt;/font&gt;" style="endArrow=block;html=1;rounded=0;entryX=0;entryY=0.25;entryDx=0;entryDy=0;verticalAlign=bottom;fillColor=none;labelBackgroundColor=none;strokeWidth=1;endFill=1;endSize=4;startSize=4;" parent="1" edge="1">
          <mxGeometry x="0.5556" width="50" height="50" relative="1" as="geometry">
            <mxPoint x="30" y="160" as="sourcePoint" />
            <mxPoint x="210" y="160" as="targetPoint" />
            <mxPoint as="offset" />
          </mxGeometry>
        </mxCell>
        <mxCell id="6DmCsKNVUbhP2ZlJ8aWh-21" value="" style="verticalLabelPosition=bottom;shadow=0;dashed=0;align=center;html=1;verticalAlign=top;shape=mxgraph.electrical.logic_gates.logic_gate;operation=and;aspect=fixed;" parent="1" vertex="1">
          <mxGeometry x="270" y="300" width="33.33" height="20" as="geometry" />
        </mxCell>
        <mxCell id="6DmCsKNVUbhP2ZlJ8aWh-24" value="&lt;font style=&quot;font-size: 12px;&quot;&gt;locked&lt;/font&gt;" style="endArrow=block;html=1;rounded=0;verticalAlign=bottom;fillColor=none;labelBackgroundColor=none;strokeWidth=1;endFill=1;endSize=4;startSize=4;" parent="1" edge="1">
          <mxGeometry width="50" height="50" relative="1" as="geometry">
            <mxPoint x="320" y="180.43" as="sourcePoint" />
            <mxPoint x="370" y="180" as="targetPoint" />
            <mxPoint as="offset" />
          </mxGeometry>
        </mxCell>
        <mxCell id="6DmCsKNVUbhP2ZlJ8aWh-25" value="&lt;span style=&quot;font-size: 12px;&quot;&gt;c0_1x&lt;/span&gt;" style="endArrow=block;html=1;rounded=0;verticalAlign=bottom;fillColor=none;labelBackgroundColor=none;strokeWidth=1;endFill=1;endSize=4;startSize=4;" parent="1" edge="1">
          <mxGeometry x="-0.1999" width="50" height="50" relative="1" as="geometry">
            <mxPoint x="320" y="130.43" as="sourcePoint" />
            <mxPoint x="370" y="130" as="targetPoint" />
            <mxPoint as="offset" />
          </mxGeometry>
        </mxCell>
        <mxCell id="6DmCsKNVUbhP2ZlJ8aWh-10" value="" style="endArrow=none;html=1;rounded=0;entryX=0.186;entryY=0.767;entryDx=0;entryDy=0;verticalAlign=bottom;fillColor=none;labelBackgroundColor=none;edgeStyle=orthogonalEdgeStyle;jumpStyle=none;strokeWidth=1;endFill=0;endSize=4;startSize=4;entryPerimeter=0;" parent="1" target="6DmCsKNVUbhP2ZlJ8aWh-21" edge="1">
          <mxGeometry x="0.4406" width="50" height="50" relative="1" as="geometry">
            <mxPoint x="140" y="160" as="sourcePoint" />
            <mxPoint x="200" y="230" as="targetPoint" />
            <mxPoint as="offset" />
            <Array as="points">
              <mxPoint x="140" y="315" />
            </Array>
          </mxGeometry>
        </mxCell>
        <mxCell id="6DmCsKNVUbhP2ZlJ8aWh-30" value="" style="endArrow=none;html=1;rounded=0;verticalAlign=bottom;fillColor=none;labelBackgroundColor=none;strokeWidth=1;endFill=0;endSize=4;startSize=4;edgeStyle=orthogonalEdgeStyle;entryX=0;entryY=0.25;entryDx=0;entryDy=0;entryPerimeter=0;" parent="1" target="6DmCsKNVUbhP2ZlJ8aWh-21" edge="1">
          <mxGeometry width="50" height="50" relative="1" as="geometry">
            <mxPoint x="370" y="180" as="sourcePoint" />
            <mxPoint x="380" y="170" as="targetPoint" />
            <mxPoint as="offset" />
            <Array as="points">
              <mxPoint x="380" y="180" />
              <mxPoint x="380" y="270" />
              <mxPoint x="250" y="270" />
              <mxPoint x="250" y="305" />
            </Array>
          </mxGeometry>
        </mxCell>
        <mxCell id="6DmCsKNVUbhP2ZlJ8aWh-35" value="&lt;span style=&quot;font-size: 12px;&quot;&gt;vga_clk&lt;/span&gt;" style="endArrow=block;html=1;rounded=0;verticalAlign=bottom;fillColor=none;labelBackgroundColor=none;strokeWidth=1;endFill=1;endSize=4;startSize=4;entryX=0.003;entryY=0.465;entryDx=0;entryDy=0;entryPerimeter=0;" parent="1" target="lO0y-kWSo12b2ms3qzik-1" edge="1">
          <mxGeometry x="0.661" width="50" height="50" relative="1" as="geometry">
            <mxPoint x="363" y="130.43" as="sourcePoint" />
            <mxPoint x="413" y="130" as="targetPoint" />
            <mxPoint as="offset" />
          </mxGeometry>
        </mxCell>
        <mxCell id="6DmCsKNVUbhP2ZlJ8aWh-36" value="&lt;span style=&quot;font-size: 12px;&quot;&gt;sys_rst_n&lt;/span&gt;" style="endArrow=block;html=1;rounded=0;verticalAlign=bottom;fillColor=none;labelBackgroundColor=none;strokeWidth=1;endFill=1;endSize=4;startSize=4;exitX=1;exitY=0.5;exitDx=0;exitDy=0;exitPerimeter=0;entryX=0.007;entryY=0.542;entryDx=0;entryDy=0;entryPerimeter=0;" parent="1" source="6DmCsKNVUbhP2ZlJ8aWh-21" target="CQehMLbI-TvT4RRxddDj-1" edge="1">
          <mxGeometry x="0.661" width="50" height="50" relative="1" as="geometry">
            <mxPoint x="373" y="140.43" as="sourcePoint" />
            <mxPoint x="550" y="140" as="targetPoint" />
            <mxPoint as="offset" />
          </mxGeometry>
        </mxCell>
        <mxCell id="6DmCsKNVUbhP2ZlJ8aWh-37" value="&lt;span style=&quot;font-size: 12px;&quot;&gt;sys_rst_n&lt;/span&gt;" style="endArrow=block;html=1;rounded=0;verticalAlign=bottom;fillColor=none;labelBackgroundColor=none;strokeWidth=1;endFill=1;endSize=4;startSize=4;edgeStyle=orthogonalEdgeStyle;jumpStyle=arc;" parent="1" edge="1">
          <mxGeometry x="0.7857" width="50" height="50" relative="1" as="geometry">
            <mxPoint x="410" y="310" as="sourcePoint" />
            <mxPoint x="540" y="110" as="targetPoint" />
            <mxPoint as="offset" />
            <Array as="points">
              <mxPoint x="410" y="290" />
              <mxPoint x="410" y="110" />
            </Array>
          </mxGeometry>
        </mxCell>
        <mxCell id="6DmCsKNVUbhP2ZlJ8aWh-38" value="pix_data[23:0]" style="endArrow=block;rounded=0;verticalAlign=bottom;fillColor=none;labelBackgroundColor=none;strokeWidth=1;endFill=1;endSize=4;startSize=4;exitX=-0.006;exitY=0.727;exitDx=0;exitDy=0;fontColor=default;exitPerimeter=0;" parent="1" source="lO0y-kWSo12b2ms3qzik-1" edge="1">
          <mxGeometry x="-0.1116" width="50" height="50" relative="1" as="geometry">
            <mxPoint x="373" y="140.43" as="sourcePoint" />
            <mxPoint x="450" y="160" as="targetPoint" />
            <mxPoint as="offset" />
          </mxGeometry>
        </mxCell>
        <mxCell id="6DmCsKNVUbhP2ZlJ8aWh-39" value="pix_data[23:0]" style="endArrow=block;rounded=0;verticalAlign=bottom;fillColor=none;labelBackgroundColor=none;strokeWidth=1;endFill=1;endSize=4;startSize=4;fontColor=default;entryX=-0.003;entryY=0.272;entryDx=0;entryDy=0;entryPerimeter=0;" parent="1" edge="1">
          <mxGeometry x="-0.1116" width="50" height="50" relative="1" as="geometry">
            <mxPoint x="451.42" y="280" as="sourcePoint" />
            <mxPoint x="540" y="280.35999999999996" as="targetPoint" />
            <mxPoint as="offset" />
          </mxGeometry>
        </mxCell>
        <mxCell id="6DmCsKNVUbhP2ZlJ8aWh-40" value="" style="endArrow=none;html=1;rounded=0;verticalAlign=bottom;fillColor=none;labelBackgroundColor=none;strokeWidth=1;endFill=0;endSize=4;startSize=4;" parent="1" edge="1">
          <mxGeometry width="50" height="50" relative="1" as="geometry">
            <mxPoint x="452" y="160" as="sourcePoint" />
            <mxPoint x="451" y="280" as="targetPoint" />
            <mxPoint as="offset" />
          </mxGeometry>
        </mxCell>
        <mxCell id="6DmCsKNVUbhP2ZlJ8aWh-41" value="pix_x[9:0]" style="endArrow=block;rounded=0;verticalAlign=bottom;fillColor=none;labelBackgroundColor=none;strokeWidth=1;endFill=1;endSize=4;startSize=4;fontColor=default;" parent="1" edge="1">
          <mxGeometry x="-0.1116" width="50" height="50" relative="1" as="geometry">
            <mxPoint x="680" y="260" as="sourcePoint" />
            <mxPoint x="760" y="260" as="targetPoint" />
            <mxPoint as="offset" />
          </mxGeometry>
        </mxCell>
        <mxCell id="6DmCsKNVUbhP2ZlJ8aWh-42" value="pix_y[9:0]" style="endArrow=block;rounded=0;verticalAlign=bottom;fillColor=none;labelBackgroundColor=none;strokeWidth=1;endFill=1;endSize=4;startSize=4;fontColor=default;" parent="1" edge="1">
          <mxGeometry x="-0.1116" width="50" height="50" relative="1" as="geometry">
            <mxPoint x="680" y="280" as="sourcePoint" />
            <mxPoint x="768" y="280" as="targetPoint" />
            <mxPoint as="offset" />
          </mxGeometry>
        </mxCell>
        <mxCell id="6DmCsKNVUbhP2ZlJ8aWh-43" value="hsync" style="endArrow=block;rounded=0;verticalAlign=bottom;fillColor=none;labelBackgroundColor=none;strokeWidth=1;endFill=1;endSize=4;startSize=4;fontColor=default;" parent="1" edge="1">
          <mxGeometry x="-0.25" width="50" height="50" relative="1" as="geometry">
            <mxPoint x="680" y="300" as="sourcePoint" />
            <mxPoint x="760" y="300" as="targetPoint" />
            <mxPoint as="offset" />
          </mxGeometry>
        </mxCell>
        <mxCell id="6DmCsKNVUbhP2ZlJ8aWh-45" value="vsync" style="endArrow=block;rounded=0;verticalAlign=bottom;fillColor=none;labelBackgroundColor=none;strokeWidth=1;endFill=1;endSize=4;startSize=4;fontColor=default;" parent="1" edge="1">
          <mxGeometry x="-0.2308" width="50" height="50" relative="1" as="geometry">
            <mxPoint x="680" y="320" as="sourcePoint" />
            <mxPoint x="758" y="320" as="targetPoint" />
            <mxPoint as="offset" />
          </mxGeometry>
        </mxCell>
        <mxCell id="6DmCsKNVUbhP2ZlJ8aWh-46" value="rgb[23:0]" style="endArrow=block;rounded=0;verticalAlign=bottom;fillColor=none;labelBackgroundColor=none;strokeWidth=1;endFill=1;endSize=4;startSize=4;fontColor=default;" parent="1" edge="1">
          <mxGeometry x="-0.1781" width="50" height="50" relative="1" as="geometry">
            <mxPoint x="680" y="360" as="sourcePoint" />
            <mxPoint x="758" y="360" as="targetPoint" />
            <mxPoint as="offset" />
          </mxGeometry>
        </mxCell>
        <mxCell id="6DmCsKNVUbhP2ZlJ8aWh-47" value="pix_x[9:0]" style="endArrow=block;rounded=0;verticalAlign=bottom;fillColor=none;labelBackgroundColor=none;strokeWidth=1;endFill=1;endSize=4;startSize=4;fontColor=default;edgeStyle=orthogonalEdgeStyle;entryX=1;entryY=0.78;entryDx=0;entryDy=0;entryPerimeter=0;" parent="1" target="lO0y-kWSo12b2ms3qzik-1" edge="1">
          <mxGeometry x="0.6556" width="50" height="50" relative="1" as="geometry">
            <mxPoint x="760" y="260" as="sourcePoint" />
            <mxPoint x="820" y="230" as="targetPoint" />
            <mxPoint as="offset" />
            <Array as="points">
              <mxPoint x="760" y="166" />
            </Array>
          </mxGeometry>
        </mxCell>
        <mxCell id="6DmCsKNVUbhP2ZlJ8aWh-48" value="pix_y[9:0]" style="endArrow=block;rounded=0;verticalAlign=bottom;fillColor=none;labelBackgroundColor=none;strokeWidth=1;endFill=1;endSize=4;startSize=4;fontColor=default;edgeStyle=orthogonalEdgeStyle;entryX=1;entryY=0.5;entryDx=0;entryDy=0;" parent="1" target="lO0y-kWSo12b2ms3qzik-1" edge="1">
          <mxGeometry x="0.7551" width="50" height="50" relative="1" as="geometry">
            <mxPoint x="760" y="280" as="sourcePoint" />
            <mxPoint x="690" y="176" as="targetPoint" />
            <mxPoint as="offset" />
            <Array as="points">
              <mxPoint x="770" y="280" />
              <mxPoint x="770" y="135" />
            </Array>
          </mxGeometry>
        </mxCell>
        <mxCell id="6DmCsKNVUbhP2ZlJ8aWh-49" value="&lt;span style=&quot;font-size: 12px;&quot;&gt;vga_clk&lt;/span&gt;" style="endArrow=block;html=1;rounded=0;verticalAlign=bottom;fillColor=none;labelBackgroundColor=none;strokeWidth=1;endFill=1;endSize=4;startSize=4;entryX=0;entryY=0.75;entryDx=0;entryDy=0;edgeStyle=orthogonalEdgeStyle;" parent="1" target="CQehMLbI-TvT4RRxddDj-1" edge="1">
          <mxGeometry x="0.661" width="50" height="50" relative="1" as="geometry">
            <mxPoint x="430" y="130" as="sourcePoint" />
            <mxPoint x="550" y="141" as="targetPoint" />
            <mxPoint as="offset" />
            <Array as="points">
              <mxPoint x="430" y="338" />
              <mxPoint x="540" y="338" />
            </Array>
          </mxGeometry>
        </mxCell>
        <mxCell id="CV52lfoXkeO3yjH1Nklx-1" value="&lt;font style=&quot;font-size: 16px;&quot;&gt;hdmi_ctrl&lt;/font&gt;" style="whiteSpace=wrap;html=1;fillColor=#e1d5e7;strokeColor=#9673a6;" vertex="1" parent="1">
          <mxGeometry x="940" y="80" width="100" height="227.5" as="geometry" />
        </mxCell>
        <mxCell id="CV52lfoXkeO3yjH1Nklx-2" value="&lt;span style=&quot;font-size: 12px;&quot;&gt;c1_5x&lt;/span&gt;" style="endArrow=block;html=1;rounded=0;verticalAlign=bottom;fillColor=none;labelBackgroundColor=none;strokeWidth=1;endFill=1;endSize=4;startSize=4;" edge="1" parent="1">
          <mxGeometry x="-0.1999" width="50" height="50" relative="1" as="geometry">
            <mxPoint x="320" y="155.43" as="sourcePoint" />
            <mxPoint x="370" y="155" as="targetPoint" />
            <mxPoint as="offset" />
          </mxGeometry>
        </mxCell>
        <mxCell id="CV52lfoXkeO3yjH1Nklx-4" value="clk_1x" style="endArrow=block;rounded=0;verticalAlign=bottom;fillColor=none;labelBackgroundColor=none;strokeWidth=1;endFill=1;endSize=4;startSize=4;fontColor=default;" edge="1" parent="1">
          <mxGeometry x="-0.111" y="-1" width="50" height="50" relative="1" as="geometry">
            <mxPoint x="850" y="106" as="sourcePoint" />
            <mxPoint x="940" y="106.35" as="targetPoint" />
            <mxPoint as="offset" />
          </mxGeometry>
        </mxCell>
        <mxCell id="CV52lfoXkeO3yjH1Nklx-5" value="clk_5x" style="endArrow=block;rounded=0;verticalAlign=bottom;fillColor=none;labelBackgroundColor=none;strokeWidth=1;endFill=1;endSize=4;startSize=4;fontColor=default;" edge="1" parent="1">
          <mxGeometry x="-0.111" y="-1" width="50" height="50" relative="1" as="geometry">
            <mxPoint x="850" y="127" as="sourcePoint" />
            <mxPoint x="940" y="127.35" as="targetPoint" />
            <mxPoint as="offset" />
          </mxGeometry>
        </mxCell>
        <mxCell id="CV52lfoXkeO3yjH1Nklx-6" value="sys_rst_n" style="endArrow=block;rounded=0;verticalAlign=bottom;fillColor=none;labelBackgroundColor=none;strokeWidth=1;endFill=1;endSize=4;startSize=4;fontColor=default;" edge="1" parent="1">
          <mxGeometry x="-0.111" y="-1" width="50" height="50" relative="1" as="geometry">
            <mxPoint x="850" y="147" as="sourcePoint" />
            <mxPoint x="940" y="147.35" as="targetPoint" />
            <mxPoint as="offset" />
          </mxGeometry>
        </mxCell>
        <mxCell id="CV52lfoXkeO3yjH1Nklx-7" value="hsync" style="endArrow=block;rounded=0;verticalAlign=bottom;fillColor=none;labelBackgroundColor=none;strokeWidth=1;endFill=1;endSize=4;startSize=4;fontColor=default;" edge="1" parent="1">
          <mxGeometry x="-0.111" y="-1" width="50" height="50" relative="1" as="geometry">
            <mxPoint x="850" y="167" as="sourcePoint" />
            <mxPoint x="940" y="167.35" as="targetPoint" />
            <mxPoint as="offset" />
          </mxGeometry>
        </mxCell>
        <mxCell id="CV52lfoXkeO3yjH1Nklx-8" value="vsync" style="endArrow=block;rounded=0;verticalAlign=bottom;fillColor=none;labelBackgroundColor=none;strokeWidth=1;endFill=1;endSize=4;startSize=4;fontColor=default;" edge="1" parent="1">
          <mxGeometry x="-0.111" y="-1" width="50" height="50" relative="1" as="geometry">
            <mxPoint x="850" y="187" as="sourcePoint" />
            <mxPoint x="940" y="187.35" as="targetPoint" />
            <mxPoint as="offset" />
          </mxGeometry>
        </mxCell>
        <mxCell id="CV52lfoXkeO3yjH1Nklx-9" value="de" style="endArrow=block;rounded=0;verticalAlign=bottom;fillColor=none;labelBackgroundColor=none;strokeWidth=1;endFill=1;endSize=4;startSize=4;fontColor=default;" edge="1" parent="1">
          <mxGeometry x="-0.111" y="-1" width="50" height="50" relative="1" as="geometry">
            <mxPoint x="850" y="206" as="sourcePoint" />
            <mxPoint x="940" y="206.35" as="targetPoint" />
            <mxPoint as="offset" />
          </mxGeometry>
        </mxCell>
        <mxCell id="CV52lfoXkeO3yjH1Nklx-10" value="rgb_red[7:0]" style="endArrow=block;rounded=0;verticalAlign=bottom;fillColor=none;labelBackgroundColor=none;strokeWidth=1;endFill=1;endSize=4;startSize=4;fontColor=default;" edge="1" parent="1">
          <mxGeometry x="-0.111" y="-1" width="50" height="50" relative="1" as="geometry">
            <mxPoint x="850" y="227.5" as="sourcePoint" />
            <mxPoint x="940" y="227.85" as="targetPoint" />
            <mxPoint as="offset" />
          </mxGeometry>
        </mxCell>
        <mxCell id="CV52lfoXkeO3yjH1Nklx-11" value="rgb_green[7:0]" style="endArrow=block;rounded=0;verticalAlign=bottom;fillColor=none;labelBackgroundColor=none;strokeWidth=1;endFill=1;endSize=4;startSize=4;fontColor=default;" edge="1" parent="1">
          <mxGeometry x="-0.111" y="-1" width="50" height="50" relative="1" as="geometry">
            <mxPoint x="850" y="247.5" as="sourcePoint" />
            <mxPoint x="940" y="247.85" as="targetPoint" />
            <mxPoint as="offset" />
          </mxGeometry>
        </mxCell>
        <mxCell id="CV52lfoXkeO3yjH1Nklx-12" value="rgb_blue[7:0]" style="endArrow=block;rounded=0;verticalAlign=bottom;fillColor=none;labelBackgroundColor=none;strokeWidth=1;endFill=1;endSize=4;startSize=4;fontColor=default;" edge="1" parent="1">
          <mxGeometry x="-0.111" y="-1" width="50" height="50" relative="1" as="geometry">
            <mxPoint x="850" y="267.5" as="sourcePoint" />
            <mxPoint x="940" y="267.85" as="targetPoint" />
            <mxPoint as="offset" />
          </mxGeometry>
        </mxCell>
        <mxCell id="CV52lfoXkeO3yjH1Nklx-13" value="hdmi_clk_p" style="endArrow=block;rounded=0;verticalAlign=bottom;fillColor=none;labelBackgroundColor=none;strokeWidth=1;endFill=1;endSize=4;startSize=4;fontColor=default;" edge="1" parent="1">
          <mxGeometry x="-0.111" y="-1" width="50" height="50" relative="1" as="geometry">
            <mxPoint x="1040" y="107.5" as="sourcePoint" />
            <mxPoint x="1200" y="107.5" as="targetPoint" />
            <mxPoint as="offset" />
          </mxGeometry>
        </mxCell>
        <mxCell id="CV52lfoXkeO3yjH1Nklx-14" value="hdmi_clk_n" style="endArrow=block;rounded=0;verticalAlign=bottom;fillColor=none;labelBackgroundColor=none;strokeWidth=1;endFill=1;endSize=4;startSize=4;fontColor=default;" edge="1" parent="1">
          <mxGeometry x="-0.111" y="-1" width="50" height="50" relative="1" as="geometry">
            <mxPoint x="1040" y="127.5" as="sourcePoint" />
            <mxPoint x="1200" y="127.5" as="targetPoint" />
            <mxPoint as="offset" />
          </mxGeometry>
        </mxCell>
        <mxCell id="CV52lfoXkeO3yjH1Nklx-15" value="hdmi_r_p" style="endArrow=block;rounded=0;verticalAlign=bottom;fillColor=none;labelBackgroundColor=none;strokeWidth=1;endFill=1;endSize=4;startSize=4;fontColor=default;" edge="1" parent="1">
          <mxGeometry x="-0.111" y="-1" width="50" height="50" relative="1" as="geometry">
            <mxPoint x="1040" y="147.29" as="sourcePoint" />
            <mxPoint x="1200" y="147.29" as="targetPoint" />
            <mxPoint as="offset" />
          </mxGeometry>
        </mxCell>
        <mxCell id="CV52lfoXkeO3yjH1Nklx-16" value="hdmi_r_n" style="endArrow=block;rounded=0;verticalAlign=bottom;fillColor=none;labelBackgroundColor=none;strokeWidth=1;endFill=1;endSize=4;startSize=4;fontColor=default;" edge="1" parent="1">
          <mxGeometry x="-0.111" y="-1" width="50" height="50" relative="1" as="geometry">
            <mxPoint x="1040" y="167.5" as="sourcePoint" />
            <mxPoint x="1200" y="167.5" as="targetPoint" />
            <mxPoint as="offset" />
          </mxGeometry>
        </mxCell>
        <mxCell id="CV52lfoXkeO3yjH1Nklx-18" value="hdmi_g_p" style="endArrow=block;rounded=0;verticalAlign=bottom;fillColor=none;labelBackgroundColor=none;strokeWidth=1;endFill=1;endSize=4;startSize=4;fontColor=default;" edge="1" parent="1">
          <mxGeometry x="-0.111" y="-1" width="50" height="50" relative="1" as="geometry">
            <mxPoint x="1040" y="183.43" as="sourcePoint" />
            <mxPoint x="1200" y="183.43" as="targetPoint" />
            <mxPoint as="offset" />
          </mxGeometry>
        </mxCell>
        <mxCell id="CV52lfoXkeO3yjH1Nklx-19" value="hdmi_g_n" style="endArrow=block;rounded=0;verticalAlign=bottom;fillColor=none;labelBackgroundColor=none;strokeWidth=1;endFill=1;endSize=4;startSize=4;fontColor=default;" edge="1" parent="1">
          <mxGeometry x="-0.111" y="-1" width="50" height="50" relative="1" as="geometry">
            <mxPoint x="1040" y="203.64" as="sourcePoint" />
            <mxPoint x="1200" y="203.64" as="targetPoint" />
            <mxPoint as="offset" />
          </mxGeometry>
        </mxCell>
        <mxCell id="CV52lfoXkeO3yjH1Nklx-20" value="hdmi_b_p" style="endArrow=block;rounded=0;verticalAlign=bottom;fillColor=none;labelBackgroundColor=none;strokeWidth=1;endFill=1;endSize=4;startSize=4;fontColor=default;" edge="1" parent="1">
          <mxGeometry x="-0.111" y="-1" width="50" height="50" relative="1" as="geometry">
            <mxPoint x="1040" y="227.5" as="sourcePoint" />
            <mxPoint x="1200" y="227.5" as="targetPoint" />
            <mxPoint as="offset" />
          </mxGeometry>
        </mxCell>
        <mxCell id="CV52lfoXkeO3yjH1Nklx-21" value="hdmi_b_n" style="endArrow=block;rounded=0;verticalAlign=bottom;fillColor=none;labelBackgroundColor=none;strokeWidth=1;endFill=1;endSize=4;startSize=4;fontColor=default;" edge="1" parent="1">
          <mxGeometry x="-0.111" y="-1" width="50" height="50" relative="1" as="geometry">
            <mxPoint x="1040" y="247.71" as="sourcePoint" />
            <mxPoint x="1200" y="247.71" as="targetPoint" />
            <mxPoint as="offset" />
          </mxGeometry>
        </mxCell>
        <mxCell id="CV52lfoXkeO3yjH1Nklx-40" value="" style="whiteSpace=wrap;html=1;fillColor=#e1d5e7;strokeColor=#9673a6;" vertex="1" parent="1">
          <mxGeometry x="-630" y="570" width="630" height="600" as="geometry" />
        </mxCell>
        <mxCell id="CV52lfoXkeO3yjH1Nklx-41" value="clk_1x" style="endArrow=block;rounded=0;verticalAlign=bottom;fillColor=none;labelBackgroundColor=none;strokeWidth=1;endFill=1;endSize=4;startSize=4;fontColor=default;" edge="1" parent="1">
          <mxGeometry x="-0.111" y="-1" width="50" height="50" relative="1" as="geometry">
            <mxPoint x="-720" y="630" as="sourcePoint" />
            <mxPoint x="-630" y="630.35" as="targetPoint" />
            <mxPoint as="offset" />
          </mxGeometry>
        </mxCell>
        <mxCell id="CV52lfoXkeO3yjH1Nklx-42" value="clk_5x" style="endArrow=block;rounded=0;verticalAlign=bottom;fillColor=none;labelBackgroundColor=none;strokeWidth=1;endFill=1;endSize=4;startSize=4;fontColor=default;" edge="1" parent="1">
          <mxGeometry x="-0.111" y="-1" width="50" height="50" relative="1" as="geometry">
            <mxPoint x="-720" y="790" as="sourcePoint" />
            <mxPoint x="-630" y="790.35" as="targetPoint" />
            <mxPoint as="offset" />
          </mxGeometry>
        </mxCell>
        <mxCell id="CV52lfoXkeO3yjH1Nklx-43" value="sys_rst_n" style="endArrow=block;rounded=0;verticalAlign=bottom;fillColor=none;labelBackgroundColor=none;strokeWidth=1;endFill=1;endSize=4;startSize=4;fontColor=default;" edge="1" parent="1">
          <mxGeometry x="-0.111" y="-1" width="50" height="50" relative="1" as="geometry">
            <mxPoint x="-720" y="651" as="sourcePoint" />
            <mxPoint x="-630" y="651.35" as="targetPoint" />
            <mxPoint as="offset" />
          </mxGeometry>
        </mxCell>
        <mxCell id="CV52lfoXkeO3yjH1Nklx-44" value="hsync" style="endArrow=block;rounded=0;verticalAlign=bottom;fillColor=none;labelBackgroundColor=none;strokeWidth=1;endFill=1;endSize=4;startSize=4;fontColor=default;" edge="1" parent="1">
          <mxGeometry x="-0.111" y="-1" width="50" height="50" relative="1" as="geometry">
            <mxPoint x="-720" y="672" as="sourcePoint" />
            <mxPoint x="-630" y="672.35" as="targetPoint" />
            <mxPoint as="offset" />
          </mxGeometry>
        </mxCell>
        <mxCell id="CV52lfoXkeO3yjH1Nklx-45" value="vsync" style="endArrow=block;rounded=0;verticalAlign=bottom;fillColor=none;labelBackgroundColor=none;strokeWidth=1;endFill=1;endSize=4;startSize=4;fontColor=default;" edge="1" parent="1">
          <mxGeometry x="-0.111" y="-1" width="50" height="50" relative="1" as="geometry">
            <mxPoint x="-720" y="690.21" as="sourcePoint" />
            <mxPoint x="-630" y="690.5600000000001" as="targetPoint" />
            <mxPoint as="offset" />
          </mxGeometry>
        </mxCell>
        <mxCell id="CV52lfoXkeO3yjH1Nklx-46" value="de" style="endArrow=block;rounded=0;verticalAlign=bottom;fillColor=none;labelBackgroundColor=none;strokeWidth=1;endFill=1;endSize=4;startSize=4;fontColor=default;" edge="1" parent="1">
          <mxGeometry x="-0.111" y="-1" width="50" height="50" relative="1" as="geometry">
            <mxPoint x="-720" y="710.21" as="sourcePoint" />
            <mxPoint x="-630" y="710.5600000000001" as="targetPoint" />
            <mxPoint as="offset" />
          </mxGeometry>
        </mxCell>
        <mxCell id="CV52lfoXkeO3yjH1Nklx-47" value="rgb_red[7:0]" style="endArrow=block;rounded=0;verticalAlign=bottom;fillColor=none;labelBackgroundColor=none;strokeWidth=1;endFill=1;endSize=4;startSize=4;fontColor=default;" edge="1" parent="1">
          <mxGeometry x="-0.111" y="-1" width="50" height="50" relative="1" as="geometry">
            <mxPoint x="-720" y="731" as="sourcePoint" />
            <mxPoint x="-630" y="731.35" as="targetPoint" />
            <mxPoint as="offset" />
          </mxGeometry>
        </mxCell>
        <mxCell id="CV52lfoXkeO3yjH1Nklx-48" value="rgb_green[7:0]" style="endArrow=block;rounded=0;verticalAlign=bottom;fillColor=none;labelBackgroundColor=none;strokeWidth=1;endFill=1;endSize=4;startSize=4;fontColor=default;" edge="1" parent="1">
          <mxGeometry x="-0.111" y="-1" width="50" height="50" relative="1" as="geometry">
            <mxPoint x="-720" y="750.21" as="sourcePoint" />
            <mxPoint x="-630" y="750.5600000000001" as="targetPoint" />
            <mxPoint as="offset" />
          </mxGeometry>
        </mxCell>
        <mxCell id="CV52lfoXkeO3yjH1Nklx-49" value="rgb_blue[7:0]" style="endArrow=block;rounded=0;verticalAlign=bottom;fillColor=none;labelBackgroundColor=none;strokeWidth=1;endFill=1;endSize=4;startSize=4;fontColor=default;" edge="1" parent="1">
          <mxGeometry x="-0.111" y="-1" width="50" height="50" relative="1" as="geometry">
            <mxPoint x="-720" y="770.21" as="sourcePoint" />
            <mxPoint x="-630" y="770.5600000000001" as="targetPoint" />
            <mxPoint as="offset" />
          </mxGeometry>
        </mxCell>
        <mxCell id="CV52lfoXkeO3yjH1Nklx-50" value="hdmi_clk_p" style="endArrow=block;rounded=0;verticalAlign=bottom;fillColor=none;labelBackgroundColor=none;strokeWidth=1;endFill=1;endSize=4;startSize=4;fontColor=default;" edge="1" parent="1">
          <mxGeometry x="-0.111" y="-1" width="50" height="50" relative="1" as="geometry">
            <mxPoint x="-48" y="1090" as="sourcePoint" />
            <mxPoint x="130" y="1090" as="targetPoint" />
            <mxPoint as="offset" />
          </mxGeometry>
        </mxCell>
        <mxCell id="CV52lfoXkeO3yjH1Nklx-51" value="hdmi_clk_n" style="endArrow=block;rounded=0;verticalAlign=bottom;fillColor=none;labelBackgroundColor=none;strokeWidth=1;endFill=1;endSize=4;startSize=4;fontColor=default;" edge="1" parent="1">
          <mxGeometry x="-0.111" y="-1" width="50" height="50" relative="1" as="geometry">
            <mxPoint x="-49" y="1110" as="sourcePoint" />
            <mxPoint x="130" y="1110" as="targetPoint" />
            <mxPoint as="offset" />
          </mxGeometry>
        </mxCell>
        <mxCell id="CV52lfoXkeO3yjH1Nklx-52" value="hdmi_r_p" style="endArrow=block;rounded=0;verticalAlign=bottom;fillColor=none;labelBackgroundColor=none;strokeWidth=1;endFill=1;endSize=4;startSize=4;fontColor=default;" edge="1" parent="1">
          <mxGeometry x="-0.111" y="-1" width="50" height="50" relative="1" as="geometry">
            <mxPoint x="-49" y="662" as="sourcePoint" />
            <mxPoint x="129" y="663" as="targetPoint" />
            <mxPoint as="offset" />
          </mxGeometry>
        </mxCell>
        <mxCell id="CV52lfoXkeO3yjH1Nklx-53" value="hdmi_r_n" style="endArrow=block;rounded=0;verticalAlign=bottom;fillColor=none;labelBackgroundColor=none;strokeWidth=1;endFill=1;endSize=4;startSize=4;fontColor=default;" edge="1" parent="1">
          <mxGeometry x="-0.111" y="-1" width="50" height="50" relative="1" as="geometry">
            <mxPoint x="-48" y="682" as="sourcePoint" />
            <mxPoint x="129" y="683.21" as="targetPoint" />
            <mxPoint as="offset" />
          </mxGeometry>
        </mxCell>
        <mxCell id="CV52lfoXkeO3yjH1Nklx-54" value="hdmi_g_p" style="endArrow=block;rounded=0;verticalAlign=bottom;fillColor=none;labelBackgroundColor=none;strokeWidth=1;endFill=1;endSize=4;startSize=4;fontColor=default;" edge="1" parent="1">
          <mxGeometry x="-0.111" y="-1" width="50" height="50" relative="1" as="geometry">
            <mxPoint x="-50" y="825" as="sourcePoint" />
            <mxPoint x="130" y="824.5400000000001" as="targetPoint" />
            <mxPoint as="offset" />
          </mxGeometry>
        </mxCell>
        <mxCell id="CV52lfoXkeO3yjH1Nklx-55" value="hdmi_g_n" style="endArrow=block;rounded=0;verticalAlign=bottom;fillColor=none;labelBackgroundColor=none;strokeWidth=1;endFill=1;endSize=4;startSize=4;fontColor=default;" edge="1" parent="1">
          <mxGeometry x="-0.111" y="-1" width="50" height="50" relative="1" as="geometry">
            <mxPoint x="-48" y="845" as="sourcePoint" />
            <mxPoint x="130" y="844.7499999999999" as="targetPoint" />
            <mxPoint as="offset" />
          </mxGeometry>
        </mxCell>
        <mxCell id="CV52lfoXkeO3yjH1Nklx-56" value="hdmi_b_p" style="endArrow=block;rounded=0;verticalAlign=bottom;fillColor=none;labelBackgroundColor=none;strokeWidth=1;endFill=1;endSize=4;startSize=4;fontColor=default;" edge="1" parent="1">
          <mxGeometry x="-0.111" y="-1" width="50" height="50" relative="1" as="geometry">
            <mxPoint x="-50" y="985" as="sourcePoint" />
            <mxPoint x="130" y="984.64" as="targetPoint" />
            <mxPoint as="offset" />
          </mxGeometry>
        </mxCell>
        <mxCell id="CV52lfoXkeO3yjH1Nklx-57" value="hdmi_b_n" style="endArrow=block;rounded=0;verticalAlign=bottom;fillColor=none;labelBackgroundColor=none;strokeWidth=1;endFill=1;endSize=4;startSize=4;fontColor=default;" edge="1" parent="1">
          <mxGeometry x="-0.111" y="-1" width="50" height="50" relative="1" as="geometry">
            <mxPoint x="-50" y="1005" as="sourcePoint" />
            <mxPoint x="130" y="1004.85" as="targetPoint" />
            <mxPoint as="offset" />
          </mxGeometry>
        </mxCell>
        <mxCell id="CV52lfoXkeO3yjH1Nklx-58" value="" style="endArrow=none;html=1;rounded=0;verticalAlign=bottom;fillColor=none;labelBackgroundColor=none;strokeWidth=1;endFill=0;endSize=4;startSize=4;edgeStyle=orthogonalEdgeStyle;jumpStyle=arc;" edge="1" parent="1">
          <mxGeometry width="50" height="50" relative="1" as="geometry">
            <mxPoint x="369" y="155.43" as="sourcePoint" />
            <mxPoint x="851" y="127" as="targetPoint" />
            <mxPoint as="offset" />
            <Array as="points">
              <mxPoint x="390" y="155" />
              <mxPoint x="390" y="216" />
              <mxPoint x="790" y="216" />
              <mxPoint x="790" y="127" />
            </Array>
          </mxGeometry>
        </mxCell>
        <mxCell id="CV52lfoXkeO3yjH1Nklx-59" value="" style="endArrow=none;html=1;rounded=0;verticalAlign=bottom;fillColor=none;labelBackgroundColor=none;strokeWidth=1;endFill=0;endSize=4;startSize=4;edgeStyle=orthogonalEdgeStyle;jumpStyle=arc;" edge="1" parent="1">
          <mxGeometry width="50" height="50" relative="1" as="geometry">
            <mxPoint x="400" y="131" as="sourcePoint" />
            <mxPoint x="850" y="106" as="targetPoint" />
            <mxPoint as="offset" />
            <Array as="points">
              <mxPoint x="400" y="200" />
              <mxPoint x="780" y="200" />
              <mxPoint x="780" y="106" />
            </Array>
          </mxGeometry>
        </mxCell>
        <mxCell id="CV52lfoXkeO3yjH1Nklx-60" value="" style="endArrow=none;html=1;rounded=0;verticalAlign=bottom;fillColor=none;labelBackgroundColor=none;strokeWidth=1;endFill=0;endSize=4;startSize=4;edgeStyle=orthogonalEdgeStyle;jumpStyle=arc;" edge="1" parent="1">
          <mxGeometry width="50" height="50" relative="1" as="geometry">
            <mxPoint x="410" y="230.43" as="sourcePoint" />
            <mxPoint x="851" y="147" as="targetPoint" />
            <mxPoint as="offset" />
            <Array as="points">
              <mxPoint x="800" y="230" />
              <mxPoint x="800" y="147" />
            </Array>
          </mxGeometry>
        </mxCell>
        <mxCell id="CV52lfoXkeO3yjH1Nklx-63" value="" style="endArrow=none;html=1;rounded=0;verticalAlign=bottom;fillColor=none;labelBackgroundColor=none;strokeWidth=1;endFill=0;endSize=4;startSize=4;edgeStyle=orthogonalEdgeStyle;" edge="1" parent="1">
          <mxGeometry width="50" height="50" relative="1" as="geometry">
            <mxPoint x="760" y="300" as="sourcePoint" />
            <mxPoint x="850" y="167" as="targetPoint" />
            <mxPoint as="offset" />
            <Array as="points">
              <mxPoint x="810" y="300" />
              <mxPoint x="810" y="167" />
            </Array>
          </mxGeometry>
        </mxCell>
        <mxCell id="CV52lfoXkeO3yjH1Nklx-64" value="" style="endArrow=none;html=1;rounded=0;verticalAlign=bottom;fillColor=none;labelBackgroundColor=none;strokeWidth=1;endFill=0;endSize=4;startSize=4;edgeStyle=orthogonalEdgeStyle;" edge="1" parent="1">
          <mxGeometry width="50" height="50" relative="1" as="geometry">
            <mxPoint x="750" y="319.98" as="sourcePoint" />
            <mxPoint x="850" y="187" as="targetPoint" />
            <mxPoint as="offset" />
            <Array as="points">
              <mxPoint x="820" y="320" />
              <mxPoint x="820" y="187" />
            </Array>
          </mxGeometry>
        </mxCell>
        <mxCell id="CV52lfoXkeO3yjH1Nklx-65" value="" style="endArrow=none;html=1;rounded=0;verticalAlign=bottom;fillColor=none;labelBackgroundColor=none;strokeWidth=3;endFill=0;endSize=4;startSize=4;edgeStyle=orthogonalEdgeStyle;" edge="1" parent="1">
          <mxGeometry width="50" height="50" relative="1" as="geometry">
            <mxPoint x="758" y="360" as="sourcePoint" />
            <mxPoint x="850" y="227" as="targetPoint" />
            <mxPoint as="offset" />
            <Array as="points">
              <mxPoint x="758" y="360" />
              <mxPoint x="850" y="360" />
            </Array>
          </mxGeometry>
        </mxCell>
        <mxCell id="CV52lfoXkeO3yjH1Nklx-66" value="rgb_valid" style="endArrow=block;rounded=0;verticalAlign=bottom;fillColor=none;labelBackgroundColor=none;strokeWidth=1;endFill=1;endSize=4;startSize=4;fontColor=default;" edge="1" parent="1">
          <mxGeometry x="-0.2308" width="50" height="50" relative="1" as="geometry">
            <mxPoint x="680" y="339" as="sourcePoint" />
            <mxPoint x="758" y="339" as="targetPoint" />
            <mxPoint as="offset" />
          </mxGeometry>
        </mxCell>
        <mxCell id="CV52lfoXkeO3yjH1Nklx-67" value="" style="endArrow=none;html=1;rounded=0;verticalAlign=bottom;fillColor=none;labelBackgroundColor=none;strokeWidth=1;endFill=0;endSize=4;startSize=4;edgeStyle=orthogonalEdgeStyle;" edge="1" parent="1">
          <mxGeometry width="50" height="50" relative="1" as="geometry">
            <mxPoint x="758" y="338.98" as="sourcePoint" />
            <mxPoint x="850" y="206" as="targetPoint" />
            <mxPoint as="offset" />
            <Array as="points">
              <mxPoint x="828" y="339" />
              <mxPoint x="828" y="206" />
            </Array>
          </mxGeometry>
        </mxCell>
        <mxCell id="CV52lfoXkeO3yjH1Nklx-68" value="&lt;font style=&quot;font-size: 16px;&quot;&gt;clk_gen&lt;/font&gt;" style="whiteSpace=wrap;html=1;fillColor=#d5e8d4;strokeColor=#82b366;" vertex="1" parent="1">
          <mxGeometry x="-260" y="80" width="110" height="80" as="geometry" />
        </mxCell>
        <mxCell id="CV52lfoXkeO3yjH1Nklx-69" value="&lt;font style=&quot;font-size: 12px;&quot;&gt;sys_clk&lt;/font&gt;" style="endArrow=block;html=1;rounded=0;entryX=0;entryY=0.25;entryDx=0;entryDy=0;verticalAlign=bottom;fillColor=none;labelBackgroundColor=none;strokeWidth=1;endFill=1;endSize=4;startSize=4;" edge="1" parent="1" target="CV52lfoXkeO3yjH1Nklx-68">
          <mxGeometry width="50" height="50" relative="1" as="geometry">
            <mxPoint x="-340" y="100" as="sourcePoint" />
            <mxPoint x="-350.0000000000001" y="100" as="targetPoint" />
            <mxPoint as="offset" />
          </mxGeometry>
        </mxCell>
        <mxCell id="CV52lfoXkeO3yjH1Nklx-70" value="&lt;font style=&quot;font-size: 12px;&quot;&gt;sys_rst_n&lt;/font&gt;" style="endArrow=block;html=1;rounded=0;verticalAlign=bottom;fillColor=none;labelBackgroundColor=none;strokeWidth=1;endFill=1;endSize=4;startSize=4;" edge="1" parent="1">
          <mxGeometry width="50" height="50" relative="1" as="geometry">
            <mxPoint x="-340" y="130" as="sourcePoint" />
            <mxPoint x="-260" y="130" as="targetPoint" />
            <mxPoint as="offset" />
          </mxGeometry>
        </mxCell>
        <mxCell id="CV52lfoXkeO3yjH1Nklx-71" value="&lt;font style=&quot;font-size: 12px;&quot;&gt;locked&lt;/font&gt;" style="endArrow=block;html=1;rounded=0;verticalAlign=bottom;fillColor=none;labelBackgroundColor=none;strokeWidth=1;endFill=1;endSize=4;startSize=4;" edge="1" parent="1">
          <mxGeometry width="50" height="50" relative="1" as="geometry">
            <mxPoint x="-150" y="150.43" as="sourcePoint" />
            <mxPoint x="-100" y="150" as="targetPoint" />
            <mxPoint as="offset" />
          </mxGeometry>
        </mxCell>
        <mxCell id="CV52lfoXkeO3yjH1Nklx-72" value="&lt;span style=&quot;font-size: 12px;&quot;&gt;c0_1x&lt;/span&gt;" style="endArrow=block;html=1;rounded=0;verticalAlign=bottom;fillColor=none;labelBackgroundColor=none;strokeWidth=1;endFill=1;endSize=4;startSize=4;" edge="1" parent="1">
          <mxGeometry x="-0.1999" width="50" height="50" relative="1" as="geometry">
            <mxPoint x="-150" y="100.43" as="sourcePoint" />
            <mxPoint x="-100" y="100" as="targetPoint" />
            <mxPoint as="offset" />
          </mxGeometry>
        </mxCell>
        <mxCell id="CV52lfoXkeO3yjH1Nklx-73" value="&lt;span style=&quot;font-size: 12px;&quot;&gt;c1_5x&lt;/span&gt;" style="endArrow=block;html=1;rounded=0;verticalAlign=bottom;fillColor=none;labelBackgroundColor=none;strokeWidth=1;endFill=1;endSize=4;startSize=4;" edge="1" parent="1">
          <mxGeometry x="-0.1999" width="50" height="50" relative="1" as="geometry">
            <mxPoint x="-150" y="125.43" as="sourcePoint" />
            <mxPoint x="-100" y="125" as="targetPoint" />
            <mxPoint as="offset" />
          </mxGeometry>
        </mxCell>
        <mxCell id="CV52lfoXkeO3yjH1Nklx-110" value="&lt;font style=&quot;font-size: 16px;&quot;&gt;encode&lt;/font&gt;" style="whiteSpace=wrap;html=1;fillColor=#ffff88;strokeColor=#36393d;" vertex="1" parent="1">
          <mxGeometry x="400" y="580" width="80" height="140" as="geometry" />
        </mxCell>
        <mxCell id="CV52lfoXkeO3yjH1Nklx-111" value="sys_rst_n" style="endArrow=block;rounded=0;verticalAlign=bottom;fillColor=none;labelBackgroundColor=none;strokeWidth=1;endFill=1;endSize=4;startSize=4;fontColor=default;" edge="1" parent="1">
          <mxGeometry x="-0.111" y="-1" width="50" height="50" relative="1" as="geometry">
            <mxPoint x="320" y="614" as="sourcePoint" />
            <mxPoint x="400" y="614" as="targetPoint" />
            <mxPoint as="offset" />
          </mxGeometry>
        </mxCell>
        <mxCell id="CV52lfoXkeO3yjH1Nklx-112" value="sys_clk" style="endArrow=block;rounded=0;verticalAlign=bottom;fillColor=none;labelBackgroundColor=none;strokeWidth=1;endFill=1;endSize=4;startSize=4;fontColor=default;" edge="1" parent="1">
          <mxGeometry x="-0.111" y="-1" width="50" height="50" relative="1" as="geometry">
            <mxPoint x="320" y="594" as="sourcePoint" />
            <mxPoint x="400" y="594" as="targetPoint" />
            <mxPoint as="offset" />
          </mxGeometry>
        </mxCell>
        <mxCell id="CV52lfoXkeO3yjH1Nklx-113" value="c0" style="endArrow=block;rounded=0;verticalAlign=bottom;fillColor=none;labelBackgroundColor=none;strokeWidth=1;endFill=1;endSize=4;startSize=4;fontColor=default;" edge="1" parent="1">
          <mxGeometry x="-0.111" y="-1" width="50" height="50" relative="1" as="geometry">
            <mxPoint x="320" y="634.88" as="sourcePoint" />
            <mxPoint x="400" y="634.88" as="targetPoint" />
            <mxPoint as="offset" />
          </mxGeometry>
        </mxCell>
        <mxCell id="CV52lfoXkeO3yjH1Nklx-114" value="c1" style="endArrow=block;rounded=0;verticalAlign=bottom;fillColor=none;labelBackgroundColor=none;strokeWidth=1;endFill=1;endSize=4;startSize=4;fontColor=default;" edge="1" parent="1">
          <mxGeometry x="-0.111" y="-1" width="50" height="50" relative="1" as="geometry">
            <mxPoint x="320" y="654" as="sourcePoint" />
            <mxPoint x="400" y="654" as="targetPoint" />
            <mxPoint as="offset" />
          </mxGeometry>
        </mxCell>
        <mxCell id="CV52lfoXkeO3yjH1Nklx-115" value="de" style="endArrow=block;rounded=0;verticalAlign=bottom;fillColor=none;labelBackgroundColor=none;strokeWidth=1;endFill=1;endSize=4;startSize=4;fontColor=default;" edge="1" parent="1">
          <mxGeometry x="-0.111" y="-1" width="50" height="50" relative="1" as="geometry">
            <mxPoint x="320" y="673" as="sourcePoint" />
            <mxPoint x="400" y="673" as="targetPoint" />
            <mxPoint as="offset" />
          </mxGeometry>
        </mxCell>
        <mxCell id="CV52lfoXkeO3yjH1Nklx-116" value="data_in[7:0]" style="endArrow=block;rounded=0;verticalAlign=bottom;fillColor=none;labelBackgroundColor=none;strokeWidth=1;endFill=1;endSize=4;startSize=4;fontColor=default;" edge="1" parent="1">
          <mxGeometry x="-0.111" y="-1" width="50" height="50" relative="1" as="geometry">
            <mxPoint x="320" y="693.63" as="sourcePoint" />
            <mxPoint x="400" y="693.63" as="targetPoint" />
            <mxPoint as="offset" />
          </mxGeometry>
        </mxCell>
        <mxCell id="CV52lfoXkeO3yjH1Nklx-117" value="data_out[9:0]" style="endArrow=block;rounded=0;verticalAlign=bottom;fillColor=none;labelBackgroundColor=none;strokeWidth=1;endFill=1;endSize=4;startSize=4;fontColor=default;" edge="1" parent="1">
          <mxGeometry x="-0.111" y="-1" width="50" height="50" relative="1" as="geometry">
            <mxPoint x="480" y="649.7" as="sourcePoint" />
            <mxPoint x="560" y="649.7" as="targetPoint" />
            <mxPoint as="offset" />
          </mxGeometry>
        </mxCell>
        <mxCell id="CV52lfoXkeO3yjH1Nklx-118" value="&lt;font style=&quot;font-size: 16px;&quot;&gt;hdmi_ctrl&lt;/font&gt;" style="text;html=1;align=center;verticalAlign=middle;resizable=0;points=[];autosize=1;strokeColor=none;fillColor=none;" vertex="1" parent="1">
          <mxGeometry x="-360" y="570" width="90" height="30" as="geometry" />
        </mxCell>
        <mxCell id="CV52lfoXkeO3yjH1Nklx-119" value="&lt;font style=&quot;font-size: 16px;&quot;&gt;encode&lt;/font&gt;" style="whiteSpace=wrap;html=1;fillColor=#ffff88;strokeColor=#36393d;" vertex="1" parent="1">
          <mxGeometry x="-428" y="617" width="75" height="130" as="geometry" />
        </mxCell>
        <mxCell id="CV52lfoXkeO3yjH1Nklx-120" value="sys_rst_n" style="endArrow=block;rounded=0;verticalAlign=bottom;fillColor=none;labelBackgroundColor=none;strokeWidth=1;endFill=1;endSize=4;startSize=4;fontColor=default;" edge="1" parent="1">
          <mxGeometry x="-0.111" y="-1" width="50" height="50" relative="1" as="geometry">
            <mxPoint x="-508" y="651" as="sourcePoint" />
            <mxPoint x="-428" y="651" as="targetPoint" />
            <mxPoint as="offset" />
          </mxGeometry>
        </mxCell>
        <mxCell id="CV52lfoXkeO3yjH1Nklx-121" value="sys_clk" style="endArrow=block;rounded=0;verticalAlign=bottom;fillColor=none;labelBackgroundColor=none;strokeWidth=1;endFill=1;endSize=4;startSize=4;fontColor=default;" edge="1" parent="1">
          <mxGeometry x="-0.111" y="-1" width="50" height="50" relative="1" as="geometry">
            <mxPoint x="-508" y="630" as="sourcePoint" />
            <mxPoint x="-428" y="630" as="targetPoint" />
            <mxPoint as="offset" />
          </mxGeometry>
        </mxCell>
        <mxCell id="CV52lfoXkeO3yjH1Nklx-122" value="c0" style="endArrow=block;rounded=0;verticalAlign=bottom;fillColor=none;labelBackgroundColor=none;strokeWidth=1;endFill=1;endSize=4;startSize=4;fontColor=default;" edge="1" parent="1">
          <mxGeometry x="-0.111" y="-1" width="50" height="50" relative="1" as="geometry">
            <mxPoint x="-508" y="671.88" as="sourcePoint" />
            <mxPoint x="-428" y="671.88" as="targetPoint" />
            <mxPoint as="offset" />
          </mxGeometry>
        </mxCell>
        <mxCell id="CV52lfoXkeO3yjH1Nklx-123" value="c1" style="endArrow=block;rounded=0;verticalAlign=bottom;fillColor=none;labelBackgroundColor=none;strokeWidth=1;endFill=1;endSize=4;startSize=4;fontColor=default;" edge="1" parent="1">
          <mxGeometry x="-0.111" y="-1" width="50" height="50" relative="1" as="geometry">
            <mxPoint x="-508" y="691" as="sourcePoint" />
            <mxPoint x="-428" y="691" as="targetPoint" />
            <mxPoint as="offset" />
          </mxGeometry>
        </mxCell>
        <mxCell id="CV52lfoXkeO3yjH1Nklx-124" value="de" style="endArrow=block;rounded=0;verticalAlign=bottom;fillColor=none;labelBackgroundColor=none;strokeWidth=1;endFill=1;endSize=4;startSize=4;fontColor=default;" edge="1" parent="1">
          <mxGeometry x="-0.111" y="-1" width="50" height="50" relative="1" as="geometry">
            <mxPoint x="-508" y="710" as="sourcePoint" />
            <mxPoint x="-428" y="710" as="targetPoint" />
            <mxPoint as="offset" />
          </mxGeometry>
        </mxCell>
        <mxCell id="CV52lfoXkeO3yjH1Nklx-125" value="data_in[7:0]" style="endArrow=block;rounded=0;verticalAlign=bottom;fillColor=none;labelBackgroundColor=none;strokeWidth=1;endFill=1;endSize=4;startSize=4;fontColor=default;" edge="1" parent="1">
          <mxGeometry x="-0.111" y="-1" width="50" height="50" relative="1" as="geometry">
            <mxPoint x="-508" y="731" as="sourcePoint" />
            <mxPoint x="-428" y="731" as="targetPoint" />
            <mxPoint as="offset" />
          </mxGeometry>
        </mxCell>
        <mxCell id="CV52lfoXkeO3yjH1Nklx-126" value="data_out[9:0]" style="endArrow=block;rounded=0;verticalAlign=bottom;fillColor=none;labelBackgroundColor=none;strokeWidth=1;endFill=1;endSize=4;startSize=4;fontColor=default;" edge="1" parent="1">
          <mxGeometry x="-0.111" y="-1" width="50" height="50" relative="1" as="geometry">
            <mxPoint x="-353" y="681.71" as="sourcePoint" />
            <mxPoint x="-273" y="681.71" as="targetPoint" />
            <mxPoint as="offset" />
          </mxGeometry>
        </mxCell>
        <mxCell id="CV52lfoXkeO3yjH1Nklx-127" value="&lt;font style=&quot;font-size: 16px;&quot;&gt;encode&lt;/font&gt;" style="whiteSpace=wrap;html=1;fillColor=#ffff88;strokeColor=#36393d;" vertex="1" parent="1">
          <mxGeometry x="-428" y="780" width="75" height="130" as="geometry" />
        </mxCell>
        <mxCell id="CV52lfoXkeO3yjH1Nklx-128" value="sys_rst_n" style="endArrow=block;rounded=0;verticalAlign=bottom;fillColor=none;labelBackgroundColor=none;strokeWidth=1;endFill=1;endSize=4;startSize=4;fontColor=default;" edge="1" parent="1">
          <mxGeometry x="-0.111" y="-1" width="50" height="50" relative="1" as="geometry">
            <mxPoint x="-508" y="814" as="sourcePoint" />
            <mxPoint x="-428" y="814" as="targetPoint" />
            <mxPoint as="offset" />
          </mxGeometry>
        </mxCell>
        <mxCell id="CV52lfoXkeO3yjH1Nklx-129" value="sys_clk" style="endArrow=block;rounded=0;verticalAlign=bottom;fillColor=none;labelBackgroundColor=none;strokeWidth=1;endFill=1;endSize=4;startSize=4;fontColor=default;" edge="1" parent="1">
          <mxGeometry x="-0.111" y="-1" width="50" height="50" relative="1" as="geometry">
            <mxPoint x="-508" y="794" as="sourcePoint" />
            <mxPoint x="-428" y="794" as="targetPoint" />
            <mxPoint as="offset" />
          </mxGeometry>
        </mxCell>
        <mxCell id="CV52lfoXkeO3yjH1Nklx-130" value="c0" style="endArrow=block;rounded=0;verticalAlign=bottom;fillColor=none;labelBackgroundColor=none;strokeWidth=1;endFill=1;endSize=4;startSize=4;fontColor=default;" edge="1" parent="1">
          <mxGeometry x="-0.111" y="-1" width="50" height="50" relative="1" as="geometry">
            <mxPoint x="-508" y="835" as="sourcePoint" />
            <mxPoint x="-428" y="835" as="targetPoint" />
            <mxPoint as="offset" />
          </mxGeometry>
        </mxCell>
        <mxCell id="CV52lfoXkeO3yjH1Nklx-131" value="c1" style="endArrow=block;rounded=0;verticalAlign=bottom;fillColor=none;labelBackgroundColor=none;strokeWidth=1;endFill=1;endSize=4;startSize=4;fontColor=default;" edge="1" parent="1">
          <mxGeometry x="-0.111" y="-1" width="50" height="50" relative="1" as="geometry">
            <mxPoint x="-508" y="854" as="sourcePoint" />
            <mxPoint x="-428" y="854" as="targetPoint" />
            <mxPoint as="offset" />
          </mxGeometry>
        </mxCell>
        <mxCell id="CV52lfoXkeO3yjH1Nklx-132" value="de" style="endArrow=block;rounded=0;verticalAlign=bottom;fillColor=none;labelBackgroundColor=none;strokeWidth=1;endFill=1;endSize=4;startSize=4;fontColor=default;" edge="1" parent="1">
          <mxGeometry x="-0.111" y="-1" width="50" height="50" relative="1" as="geometry">
            <mxPoint x="-508" y="873" as="sourcePoint" />
            <mxPoint x="-428" y="873" as="targetPoint" />
            <mxPoint as="offset" />
          </mxGeometry>
        </mxCell>
        <mxCell id="CV52lfoXkeO3yjH1Nklx-133" value="data_in[7:0]" style="endArrow=block;rounded=0;verticalAlign=bottom;fillColor=none;labelBackgroundColor=none;strokeWidth=1;endFill=1;endSize=4;startSize=4;fontColor=default;" edge="1" parent="1">
          <mxGeometry x="-0.111" y="-1" width="50" height="50" relative="1" as="geometry">
            <mxPoint x="-508" y="894" as="sourcePoint" />
            <mxPoint x="-428" y="894" as="targetPoint" />
            <mxPoint as="offset" />
          </mxGeometry>
        </mxCell>
        <mxCell id="CV52lfoXkeO3yjH1Nklx-134" value="data_out[9:0]" style="endArrow=block;rounded=0;verticalAlign=bottom;fillColor=none;labelBackgroundColor=none;strokeWidth=1;endFill=1;endSize=4;startSize=4;fontColor=default;" edge="1" parent="1">
          <mxGeometry x="-0.111" y="-1" width="50" height="50" relative="1" as="geometry">
            <mxPoint x="-353" y="844.71" as="sourcePoint" />
            <mxPoint x="-273" y="844.71" as="targetPoint" />
            <mxPoint as="offset" />
          </mxGeometry>
        </mxCell>
        <mxCell id="CV52lfoXkeO3yjH1Nklx-135" value="&lt;font style=&quot;font-size: 16px;&quot;&gt;encode&lt;/font&gt;" style="whiteSpace=wrap;html=1;fillColor=#ffff88;strokeColor=#36393d;" vertex="1" parent="1">
          <mxGeometry x="-428" y="940" width="75" height="130" as="geometry" />
        </mxCell>
        <mxCell id="CV52lfoXkeO3yjH1Nklx-136" value="sys_rst_n" style="endArrow=block;rounded=0;verticalAlign=bottom;fillColor=none;labelBackgroundColor=none;strokeWidth=1;endFill=1;endSize=4;startSize=4;fontColor=default;" edge="1" parent="1">
          <mxGeometry x="-0.111" y="-1" width="50" height="50" relative="1" as="geometry">
            <mxPoint x="-508" y="974" as="sourcePoint" />
            <mxPoint x="-428" y="974" as="targetPoint" />
            <mxPoint as="offset" />
          </mxGeometry>
        </mxCell>
        <mxCell id="CV52lfoXkeO3yjH1Nklx-137" value="sys_clk" style="endArrow=block;rounded=0;verticalAlign=bottom;fillColor=none;labelBackgroundColor=none;strokeWidth=1;endFill=1;endSize=4;startSize=4;fontColor=default;" edge="1" parent="1">
          <mxGeometry x="-0.111" y="-1" width="50" height="50" relative="1" as="geometry">
            <mxPoint x="-508" y="954" as="sourcePoint" />
            <mxPoint x="-428" y="954" as="targetPoint" />
            <mxPoint as="offset" />
          </mxGeometry>
        </mxCell>
        <mxCell id="CV52lfoXkeO3yjH1Nklx-138" value="c0" style="endArrow=block;rounded=0;verticalAlign=bottom;fillColor=none;labelBackgroundColor=none;strokeWidth=1;endFill=1;endSize=4;startSize=4;fontColor=default;" edge="1" parent="1">
          <mxGeometry x="-0.111" y="-1" width="50" height="50" relative="1" as="geometry">
            <mxPoint x="-508" y="994.88" as="sourcePoint" />
            <mxPoint x="-428" y="994.88" as="targetPoint" />
            <mxPoint as="offset" />
          </mxGeometry>
        </mxCell>
        <mxCell id="CV52lfoXkeO3yjH1Nklx-139" value="c1" style="endArrow=block;rounded=0;verticalAlign=bottom;fillColor=none;labelBackgroundColor=none;strokeWidth=1;endFill=1;endSize=4;startSize=4;fontColor=default;" edge="1" parent="1">
          <mxGeometry x="-0.111" y="-1" width="50" height="50" relative="1" as="geometry">
            <mxPoint x="-508" y="1014" as="sourcePoint" />
            <mxPoint x="-428" y="1014" as="targetPoint" />
            <mxPoint as="offset" />
          </mxGeometry>
        </mxCell>
        <mxCell id="CV52lfoXkeO3yjH1Nklx-140" value="de" style="endArrow=block;rounded=0;verticalAlign=bottom;fillColor=none;labelBackgroundColor=none;strokeWidth=1;endFill=1;endSize=4;startSize=4;fontColor=default;" edge="1" parent="1">
          <mxGeometry x="-0.111" y="-1" width="50" height="50" relative="1" as="geometry">
            <mxPoint x="-508" y="1033" as="sourcePoint" />
            <mxPoint x="-428" y="1033" as="targetPoint" />
            <mxPoint as="offset" />
          </mxGeometry>
        </mxCell>
        <mxCell id="CV52lfoXkeO3yjH1Nklx-141" value="data_in[7:0]" style="endArrow=block;rounded=0;verticalAlign=bottom;fillColor=none;labelBackgroundColor=none;strokeWidth=1;endFill=1;endSize=4;startSize=4;fontColor=default;" edge="1" parent="1">
          <mxGeometry x="-0.111" y="-1" width="50" height="50" relative="1" as="geometry">
            <mxPoint x="-508" y="1054" as="sourcePoint" />
            <mxPoint x="-428" y="1054" as="targetPoint" />
            <mxPoint as="offset" />
          </mxGeometry>
        </mxCell>
        <mxCell id="CV52lfoXkeO3yjH1Nklx-142" value="data_out[9:0]" style="endArrow=block;rounded=0;verticalAlign=bottom;fillColor=none;labelBackgroundColor=none;strokeWidth=1;endFill=1;endSize=4;startSize=4;fontColor=default;" edge="1" parent="1">
          <mxGeometry x="-0.111" y="-1" width="50" height="50" relative="1" as="geometry">
            <mxPoint x="-353" y="1004.71" as="sourcePoint" />
            <mxPoint x="-273" y="1004.71" as="targetPoint" />
            <mxPoint as="offset" />
          </mxGeometry>
        </mxCell>
        <mxCell id="CV52lfoXkeO3yjH1Nklx-143" value="" style="whiteSpace=wrap;html=1;fillColor=#ffcccc;strokeColor=#36393d;" vertex="1" parent="1">
          <mxGeometry x="956.66" y="585" width="76.67" height="95" as="geometry" />
        </mxCell>
        <mxCell id="CV52lfoXkeO3yjH1Nklx-144" value="clk_5x" style="endArrow=block;rounded=0;verticalAlign=bottom;fillColor=none;labelBackgroundColor=none;strokeWidth=1;endFill=1;endSize=4;startSize=4;fontColor=default;" edge="1" parent="1">
          <mxGeometry x="-0.111" y="-1" width="50" height="50" relative="1" as="geometry">
            <mxPoint x="876.66" y="616.71" as="sourcePoint" />
            <mxPoint x="956.66" y="616.71" as="targetPoint" />
            <mxPoint as="offset" />
          </mxGeometry>
        </mxCell>
        <mxCell id="CV52lfoXkeO3yjH1Nklx-146" value="par_data[9:0]" style="endArrow=block;rounded=0;verticalAlign=bottom;fillColor=none;labelBackgroundColor=none;strokeWidth=1;endFill=1;endSize=4;startSize=4;fontColor=default;" edge="1" parent="1">
          <mxGeometry x="0.125" width="50" height="50" relative="1" as="geometry">
            <mxPoint x="876.66" y="649.71" as="sourcePoint" />
            <mxPoint x="956.66" y="649.71" as="targetPoint" />
            <mxPoint as="offset" />
          </mxGeometry>
        </mxCell>
        <mxCell id="CV52lfoXkeO3yjH1Nklx-147" value="ser_data_p" style="endArrow=block;rounded=0;verticalAlign=bottom;fillColor=none;labelBackgroundColor=none;strokeWidth=1;endFill=1;endSize=4;startSize=4;fontColor=default;" edge="1" parent="1">
          <mxGeometry x="-0.1429" width="50" height="50" relative="1" as="geometry">
            <mxPoint x="1033.33" y="616.71" as="sourcePoint" />
            <mxPoint x="1103.3300000000002" y="616.71" as="targetPoint" />
            <mxPoint as="offset" />
          </mxGeometry>
        </mxCell>
        <mxCell id="CV52lfoXkeO3yjH1Nklx-148" value="ser_data_n" style="endArrow=block;rounded=0;verticalAlign=bottom;fillColor=none;labelBackgroundColor=none;strokeWidth=1;endFill=1;endSize=4;startSize=4;fontColor=default;" edge="1" parent="1">
          <mxGeometry x="-0.1429" width="50" height="50" relative="1" as="geometry">
            <mxPoint x="1033.33" y="649.71" as="sourcePoint" />
            <mxPoint x="1103.3300000000002" y="649.71" as="targetPoint" />
            <mxPoint as="offset" />
          </mxGeometry>
        </mxCell>
        <mxCell id="CV52lfoXkeO3yjH1Nklx-152" value="" style="endArrow=none;html=1;rounded=0;verticalAlign=bottom;fillColor=none;labelBackgroundColor=none;strokeWidth=1;endFill=0;endSize=4;startSize=4;edgeStyle=orthogonalEdgeStyle;jumpStyle=arc;" edge="1" parent="1">
          <mxGeometry width="50" height="50" relative="1" as="geometry">
            <mxPoint x="-516" y="630" as="sourcePoint" />
            <mxPoint x="-507" y="794" as="targetPoint" />
            <mxPoint as="offset" />
            <Array as="points">
              <mxPoint x="-516" y="630" />
              <mxPoint x="-516" y="794" />
            </Array>
          </mxGeometry>
        </mxCell>
        <mxCell id="CV52lfoXkeO3yjH1Nklx-153" value="" style="endArrow=none;html=1;rounded=0;verticalAlign=bottom;fillColor=none;labelBackgroundColor=none;strokeWidth=1;endFill=0;endSize=4;startSize=4;edgeStyle=orthogonalEdgeStyle;" edge="1" parent="1">
          <mxGeometry width="50" height="50" relative="1" as="geometry">
            <mxPoint x="-516" y="793" as="sourcePoint" />
            <mxPoint x="-507" y="954" as="targetPoint" />
            <mxPoint as="offset" />
            <Array as="points">
              <mxPoint x="-516" y="954" />
              <mxPoint x="-507" y="954" />
            </Array>
          </mxGeometry>
        </mxCell>
        <mxCell id="CV52lfoXkeO3yjH1Nklx-155" value="" style="endArrow=none;html=1;rounded=0;verticalAlign=bottom;fillColor=none;labelBackgroundColor=none;strokeWidth=1;endFill=0;endSize=4;startSize=4;exitX=0;exitY=0.135;exitDx=0;exitDy=0;exitPerimeter=0;jumpStyle=arc;" edge="1" parent="1" source="CV52lfoXkeO3yjH1Nklx-40">
          <mxGeometry width="50" height="50" relative="1" as="geometry">
            <mxPoint x="-607" y="651.21" as="sourcePoint" />
            <mxPoint x="-507" y="651" as="targetPoint" />
            <mxPoint as="offset" />
          </mxGeometry>
        </mxCell>
        <mxCell id="CV52lfoXkeO3yjH1Nklx-156" value="" style="endArrow=none;html=1;rounded=0;verticalAlign=bottom;fillColor=none;labelBackgroundColor=none;strokeWidth=1;endFill=0;endSize=4;startSize=4;edgeStyle=orthogonalEdgeStyle;jumpStyle=arc;" edge="1" parent="1">
          <mxGeometry width="50" height="50" relative="1" as="geometry">
            <mxPoint x="-531" y="651" as="sourcePoint" />
            <mxPoint x="-506" y="814" as="targetPoint" />
            <mxPoint as="offset" />
            <Array as="points">
              <mxPoint x="-531" y="651" />
              <mxPoint x="-531" y="815" />
            </Array>
          </mxGeometry>
        </mxCell>
        <mxCell id="CV52lfoXkeO3yjH1Nklx-157" value="" style="endArrow=none;html=1;rounded=0;verticalAlign=bottom;fillColor=none;labelBackgroundColor=none;strokeWidth=1;endFill=0;endSize=4;startSize=4;edgeStyle=orthogonalEdgeStyle;jumpStyle=arc;" edge="1" parent="1">
          <mxGeometry width="50" height="50" relative="1" as="geometry">
            <mxPoint x="-531" y="814" as="sourcePoint" />
            <mxPoint x="-507" y="974" as="targetPoint" />
            <mxPoint as="offset" />
            <Array as="points">
              <mxPoint x="-531" y="814" />
              <mxPoint x="-531" y="978" />
            </Array>
          </mxGeometry>
        </mxCell>
        <mxCell id="CV52lfoXkeO3yjH1Nklx-158" value="" style="endArrow=none;html=1;rounded=0;verticalAlign=bottom;fillColor=none;labelBackgroundColor=none;strokeWidth=1;endFill=0;endSize=4;startSize=4;exitX=0.001;exitY=0.17;exitDx=0;exitDy=0;exitPerimeter=0;jumpStyle=arc;" edge="1" parent="1" source="CV52lfoXkeO3yjH1Nklx-40">
          <mxGeometry width="50" height="50" relative="1" as="geometry">
            <mxPoint x="-610" y="672" as="sourcePoint" />
            <mxPoint x="-507" y="672" as="targetPoint" />
            <mxPoint as="offset" />
          </mxGeometry>
        </mxCell>
        <mxCell id="CV52lfoXkeO3yjH1Nklx-159" value="" style="endArrow=none;html=1;rounded=0;verticalAlign=bottom;fillColor=none;labelBackgroundColor=none;strokeWidth=1;endFill=0;endSize=4;startSize=4;edgeStyle=orthogonalEdgeStyle;jumpStyle=arc;" edge="1" parent="1">
          <mxGeometry width="50" height="50" relative="1" as="geometry">
            <mxPoint x="-545" y="672" as="sourcePoint" />
            <mxPoint x="-506" y="835" as="targetPoint" />
            <mxPoint as="offset" />
            <Array as="points">
              <mxPoint x="-545" y="672" />
              <mxPoint x="-545" y="835" />
            </Array>
          </mxGeometry>
        </mxCell>
        <mxCell id="CV52lfoXkeO3yjH1Nklx-160" value="" style="endArrow=none;html=1;rounded=0;verticalAlign=bottom;fillColor=none;labelBackgroundColor=none;strokeWidth=1;endFill=0;endSize=4;startSize=4;edgeStyle=orthogonalEdgeStyle;jumpStyle=arc;" edge="1" parent="1">
          <mxGeometry width="50" height="50" relative="1" as="geometry">
            <mxPoint x="-545" y="840" as="sourcePoint" />
            <mxPoint x="-508" y="995" as="targetPoint" />
            <mxPoint as="offset" />
            <Array as="points">
              <mxPoint x="-545" y="830" />
              <mxPoint x="-545" y="995" />
            </Array>
          </mxGeometry>
        </mxCell>
        <mxCell id="CV52lfoXkeO3yjH1Nklx-161" value="" style="endArrow=none;html=1;rounded=0;verticalAlign=bottom;fillColor=none;labelBackgroundColor=none;strokeWidth=1;endFill=0;endSize=4;startSize=4;exitX=0;exitY=0.202;exitDx=0;exitDy=0;exitPerimeter=0;jumpStyle=arc;" edge="1" parent="1" source="CV52lfoXkeO3yjH1Nklx-40">
          <mxGeometry width="50" height="50" relative="1" as="geometry">
            <mxPoint x="-610" y="691" as="sourcePoint" />
            <mxPoint x="-507" y="691" as="targetPoint" />
            <mxPoint as="offset" />
          </mxGeometry>
        </mxCell>
        <mxCell id="CV52lfoXkeO3yjH1Nklx-163" value="" style="endArrow=none;html=1;rounded=0;verticalAlign=bottom;fillColor=none;labelBackgroundColor=none;strokeWidth=1;endFill=0;endSize=4;startSize=4;edgeStyle=orthogonalEdgeStyle;jumpStyle=arc;" edge="1" parent="1">
          <mxGeometry width="50" height="50" relative="1" as="geometry">
            <mxPoint x="-559" y="691" as="sourcePoint" />
            <mxPoint x="-507" y="854" as="targetPoint" />
            <mxPoint as="offset" />
            <Array as="points">
              <mxPoint x="-559" y="691" />
              <mxPoint x="-559" y="854" />
            </Array>
          </mxGeometry>
        </mxCell>
        <mxCell id="CV52lfoXkeO3yjH1Nklx-164" value="" style="endArrow=none;html=1;rounded=0;verticalAlign=bottom;fillColor=none;labelBackgroundColor=none;strokeWidth=1;endFill=0;endSize=4;startSize=4;edgeStyle=orthogonalEdgeStyle;jumpStyle=arc;" edge="1" parent="1">
          <mxGeometry width="50" height="50" relative="1" as="geometry">
            <mxPoint x="-559" y="853" as="sourcePoint" />
            <mxPoint x="-506" y="1014" as="targetPoint" />
            <mxPoint as="offset" />
            <Array as="points">
              <mxPoint x="-559" y="853" />
              <mxPoint x="-559" y="1016" />
            </Array>
          </mxGeometry>
        </mxCell>
        <mxCell id="CV52lfoXkeO3yjH1Nklx-165" value="" style="endArrow=none;html=1;rounded=0;verticalAlign=bottom;fillColor=none;labelBackgroundColor=none;strokeWidth=1;endFill=0;endSize=4;startSize=4;exitX=0;exitY=0.234;exitDx=0;exitDy=0;exitPerimeter=0;jumpStyle=arc;" edge="1" parent="1" source="CV52lfoXkeO3yjH1Nklx-40">
          <mxGeometry width="50" height="50" relative="1" as="geometry">
            <mxPoint x="-610" y="710" as="sourcePoint" />
            <mxPoint x="-507" y="710" as="targetPoint" />
            <mxPoint as="offset" />
          </mxGeometry>
        </mxCell>
        <mxCell id="CV52lfoXkeO3yjH1Nklx-166" value="" style="endArrow=none;html=1;rounded=0;verticalAlign=bottom;fillColor=none;labelBackgroundColor=none;strokeWidth=1;endFill=0;endSize=4;startSize=4;edgeStyle=orthogonalEdgeStyle;jumpStyle=arc;" edge="1" parent="1">
          <mxGeometry width="50" height="50" relative="1" as="geometry">
            <mxPoint x="-573" y="710" as="sourcePoint" />
            <mxPoint x="-507" y="873" as="targetPoint" />
            <mxPoint as="offset" />
            <Array as="points">
              <mxPoint x="-573" y="711" />
              <mxPoint x="-573" y="874" />
            </Array>
          </mxGeometry>
        </mxCell>
        <mxCell id="CV52lfoXkeO3yjH1Nklx-167" value="" style="endArrow=none;html=1;rounded=0;verticalAlign=bottom;fillColor=none;labelBackgroundColor=none;strokeWidth=1;endFill=0;endSize=4;startSize=4;edgeStyle=orthogonalEdgeStyle;jumpStyle=arc;" edge="1" parent="1">
          <mxGeometry width="50" height="50" relative="1" as="geometry">
            <mxPoint x="-573" y="872" as="sourcePoint" />
            <mxPoint x="-507" y="1033" as="targetPoint" />
            <mxPoint as="offset" />
            <Array as="points">
              <mxPoint x="-573" y="873" />
              <mxPoint x="-573" y="1036" />
            </Array>
          </mxGeometry>
        </mxCell>
        <mxCell id="CV52lfoXkeO3yjH1Nklx-168" value="" style="endArrow=none;html=1;rounded=0;verticalAlign=bottom;fillColor=none;labelBackgroundColor=none;strokeWidth=1;endFill=0;endSize=4;startSize=4;exitX=0.002;exitY=0.269;exitDx=0;exitDy=0;exitPerimeter=0;jumpStyle=arc;" edge="1" parent="1" source="CV52lfoXkeO3yjH1Nklx-40">
          <mxGeometry width="50" height="50" relative="1" as="geometry">
            <mxPoint x="-610" y="731" as="sourcePoint" />
            <mxPoint x="-507" y="731" as="targetPoint" />
            <mxPoint as="offset" />
          </mxGeometry>
        </mxCell>
        <mxCell id="CV52lfoXkeO3yjH1Nklx-169" value="" style="endArrow=none;html=1;rounded=0;verticalAlign=bottom;fillColor=none;labelBackgroundColor=none;strokeWidth=1;endFill=0;endSize=4;startSize=4;edgeStyle=orthogonalEdgeStyle;jumpStyle=arc;exitX=0.002;exitY=0.3;exitDx=0;exitDy=0;exitPerimeter=0;" edge="1" parent="1" source="CV52lfoXkeO3yjH1Nklx-40">
          <mxGeometry width="50" height="50" relative="1" as="geometry">
            <mxPoint x="-611" y="750" as="sourcePoint" />
            <mxPoint x="-507" y="894" as="targetPoint" />
            <mxPoint as="offset" />
            <Array as="points">
              <mxPoint x="-587" y="750" />
              <mxPoint x="-587" y="894" />
            </Array>
          </mxGeometry>
        </mxCell>
        <mxCell id="CV52lfoXkeO3yjH1Nklx-170" value="" style="endArrow=none;html=1;rounded=0;verticalAlign=bottom;fillColor=none;labelBackgroundColor=none;strokeWidth=1;endFill=0;endSize=4;startSize=4;edgeStyle=orthogonalEdgeStyle;jumpStyle=arc;exitX=0.001;exitY=0.333;exitDx=0;exitDy=0;exitPerimeter=0;" edge="1" parent="1" source="CV52lfoXkeO3yjH1Nklx-40">
          <mxGeometry width="50" height="50" relative="1" as="geometry">
            <mxPoint x="-626" y="770" as="sourcePoint" />
            <mxPoint x="-508" y="1054" as="targetPoint" />
            <mxPoint as="offset" />
            <Array as="points">
              <mxPoint x="-602" y="770" />
              <mxPoint x="-602" y="1054" />
              <mxPoint x="-508" y="1054" />
            </Array>
          </mxGeometry>
        </mxCell>
        <mxCell id="CV52lfoXkeO3yjH1Nklx-171" value="" style="endArrow=none;html=1;rounded=0;verticalAlign=bottom;fillColor=none;labelBackgroundColor=none;strokeWidth=1;endFill=0;endSize=4;startSize=4;exitX=0;exitY=0.135;exitDx=0;exitDy=0;exitPerimeter=0;jumpStyle=none;" edge="1" parent="1">
          <mxGeometry width="50" height="50" relative="1" as="geometry">
            <mxPoint x="-630" y="630" as="sourcePoint" />
            <mxPoint x="-507" y="630" as="targetPoint" />
            <mxPoint as="offset" />
          </mxGeometry>
        </mxCell>
        <mxCell id="CV52lfoXkeO3yjH1Nklx-177" value="&lt;font style=&quot;font-size: 16px;&quot;&gt;par2ser&lt;/font&gt;" style="whiteSpace=wrap;html=1;fillColor=#ffcccc;strokeColor=#36393d;" vertex="1" parent="1">
          <mxGeometry x="-194" y="642" width="76.67" height="60" as="geometry" />
        </mxCell>
        <mxCell id="CV52lfoXkeO3yjH1Nklx-178" value="clk_5x" style="endArrow=block;rounded=0;verticalAlign=bottom;fillColor=none;labelBackgroundColor=none;strokeWidth=1;endFill=1;endSize=4;startSize=4;fontColor=default;" edge="1" parent="1">
          <mxGeometry x="-0.111" y="-1" width="50" height="50" relative="1" as="geometry">
            <mxPoint x="-274" y="662" as="sourcePoint" />
            <mxPoint x="-194" y="662" as="targetPoint" />
            <mxPoint as="offset" />
          </mxGeometry>
        </mxCell>
        <mxCell id="CV52lfoXkeO3yjH1Nklx-179" value="par_data[9:0]" style="endArrow=block;rounded=0;verticalAlign=bottom;fillColor=none;labelBackgroundColor=none;strokeWidth=1;endFill=1;endSize=4;startSize=4;fontColor=default;" edge="1" parent="1">
          <mxGeometry x="0.125" width="50" height="50" relative="1" as="geometry">
            <mxPoint x="-274" y="682" as="sourcePoint" />
            <mxPoint x="-194" y="682" as="targetPoint" />
            <mxPoint as="offset" />
          </mxGeometry>
        </mxCell>
        <mxCell id="CV52lfoXkeO3yjH1Nklx-180" value="ser_data_p" style="endArrow=block;rounded=0;verticalAlign=bottom;fillColor=none;labelBackgroundColor=none;strokeWidth=1;endFill=1;endSize=4;startSize=4;fontColor=default;" edge="1" parent="1">
          <mxGeometry x="-0.1429" width="50" height="50" relative="1" as="geometry">
            <mxPoint x="-117.33000000000004" y="662" as="sourcePoint" />
            <mxPoint x="-47.33000000000004" y="662" as="targetPoint" />
            <mxPoint as="offset" />
          </mxGeometry>
        </mxCell>
        <mxCell id="CV52lfoXkeO3yjH1Nklx-181" value="ser_data_n" style="endArrow=block;rounded=0;verticalAlign=bottom;fillColor=none;labelBackgroundColor=none;strokeWidth=1;endFill=1;endSize=4;startSize=4;fontColor=default;" edge="1" parent="1">
          <mxGeometry x="-0.1429" width="50" height="50" relative="1" as="geometry">
            <mxPoint x="-117.33000000000004" y="682" as="sourcePoint" />
            <mxPoint x="-47.33000000000004" y="682" as="targetPoint" />
            <mxPoint as="offset" />
          </mxGeometry>
        </mxCell>
        <mxCell id="CV52lfoXkeO3yjH1Nklx-182" value="&lt;font style=&quot;font-size: 16px;&quot;&gt;par2ser&lt;/font&gt;" style="whiteSpace=wrap;html=1;fillColor=#ffcccc;strokeColor=#36393d;" vertex="1" parent="1">
          <mxGeometry x="-193" y="805" width="76.67" height="60" as="geometry" />
        </mxCell>
        <mxCell id="CV52lfoXkeO3yjH1Nklx-183" value="clk_5x" style="endArrow=block;rounded=0;verticalAlign=bottom;fillColor=none;labelBackgroundColor=none;strokeWidth=1;endFill=1;endSize=4;startSize=4;fontColor=default;" edge="1" parent="1">
          <mxGeometry x="-0.111" y="-1" width="50" height="50" relative="1" as="geometry">
            <mxPoint x="-273" y="825" as="sourcePoint" />
            <mxPoint x="-193" y="825" as="targetPoint" />
            <mxPoint as="offset" />
          </mxGeometry>
        </mxCell>
        <mxCell id="CV52lfoXkeO3yjH1Nklx-184" value="par_data[9:0]" style="endArrow=block;rounded=0;verticalAlign=bottom;fillColor=none;labelBackgroundColor=none;strokeWidth=1;endFill=1;endSize=4;startSize=4;fontColor=default;" edge="1" parent="1">
          <mxGeometry x="0.125" width="50" height="50" relative="1" as="geometry">
            <mxPoint x="-273" y="845" as="sourcePoint" />
            <mxPoint x="-193" y="845" as="targetPoint" />
            <mxPoint as="offset" />
          </mxGeometry>
        </mxCell>
        <mxCell id="CV52lfoXkeO3yjH1Nklx-185" value="ser_data_p" style="endArrow=block;rounded=0;verticalAlign=bottom;fillColor=none;labelBackgroundColor=none;strokeWidth=1;endFill=1;endSize=4;startSize=4;fontColor=default;" edge="1" parent="1">
          <mxGeometry x="-0.1429" width="50" height="50" relative="1" as="geometry">
            <mxPoint x="-116.33000000000004" y="825" as="sourcePoint" />
            <mxPoint x="-46.33000000000004" y="825" as="targetPoint" />
            <mxPoint as="offset" />
          </mxGeometry>
        </mxCell>
        <mxCell id="CV52lfoXkeO3yjH1Nklx-186" value="ser_data_n" style="endArrow=block;rounded=0;verticalAlign=bottom;fillColor=none;labelBackgroundColor=none;strokeWidth=1;endFill=1;endSize=4;startSize=4;fontColor=default;" edge="1" parent="1">
          <mxGeometry x="-0.1429" width="50" height="50" relative="1" as="geometry">
            <mxPoint x="-116.33000000000004" y="845" as="sourcePoint" />
            <mxPoint x="-46.33000000000004" y="845" as="targetPoint" />
            <mxPoint as="offset" />
          </mxGeometry>
        </mxCell>
        <mxCell id="CV52lfoXkeO3yjH1Nklx-187" value="&lt;font style=&quot;font-size: 16px;&quot;&gt;par2ser&lt;/font&gt;" style="whiteSpace=wrap;html=1;fillColor=#ffcccc;strokeColor=#36393d;" vertex="1" parent="1">
          <mxGeometry x="-194" y="965" width="76.67" height="60" as="geometry" />
        </mxCell>
        <mxCell id="CV52lfoXkeO3yjH1Nklx-188" value="clk_5x" style="endArrow=block;rounded=0;verticalAlign=bottom;fillColor=none;labelBackgroundColor=none;strokeWidth=1;endFill=1;endSize=4;startSize=4;fontColor=default;" edge="1" parent="1">
          <mxGeometry x="-0.111" y="-1" width="50" height="50" relative="1" as="geometry">
            <mxPoint x="-274" y="985" as="sourcePoint" />
            <mxPoint x="-194" y="985" as="targetPoint" />
            <mxPoint as="offset" />
          </mxGeometry>
        </mxCell>
        <mxCell id="CV52lfoXkeO3yjH1Nklx-189" value="par_data[9:0]" style="endArrow=block;rounded=0;verticalAlign=bottom;fillColor=none;labelBackgroundColor=none;strokeWidth=1;endFill=1;endSize=4;startSize=4;fontColor=default;" edge="1" parent="1">
          <mxGeometry x="0.125" width="50" height="50" relative="1" as="geometry">
            <mxPoint x="-274" y="1005" as="sourcePoint" />
            <mxPoint x="-194" y="1005" as="targetPoint" />
            <mxPoint as="offset" />
          </mxGeometry>
        </mxCell>
        <mxCell id="CV52lfoXkeO3yjH1Nklx-190" value="ser_data_p" style="endArrow=block;rounded=0;verticalAlign=bottom;fillColor=none;labelBackgroundColor=none;strokeWidth=1;endFill=1;endSize=4;startSize=4;fontColor=default;" edge="1" parent="1">
          <mxGeometry x="-0.1429" width="50" height="50" relative="1" as="geometry">
            <mxPoint x="-117.33000000000004" y="985" as="sourcePoint" />
            <mxPoint x="-47.33000000000004" y="985" as="targetPoint" />
            <mxPoint as="offset" />
          </mxGeometry>
        </mxCell>
        <mxCell id="CV52lfoXkeO3yjH1Nklx-191" value="ser_data_n" style="endArrow=block;rounded=0;verticalAlign=bottom;fillColor=none;labelBackgroundColor=none;strokeWidth=1;endFill=1;endSize=4;startSize=4;fontColor=default;" edge="1" parent="1">
          <mxGeometry x="-0.1429" width="50" height="50" relative="1" as="geometry">
            <mxPoint x="-117.33000000000004" y="1005" as="sourcePoint" />
            <mxPoint x="-47.33000000000004" y="1005" as="targetPoint" />
            <mxPoint as="offset" />
          </mxGeometry>
        </mxCell>
        <mxCell id="CV52lfoXkeO3yjH1Nklx-192" value="" style="endArrow=none;html=1;rounded=0;verticalAlign=bottom;fillColor=none;labelBackgroundColor=none;strokeWidth=1;endFill=0;endSize=4;startSize=4;edgeStyle=orthogonalEdgeStyle;jumpStyle=arc;" edge="1" parent="1">
          <mxGeometry width="50" height="50" relative="1" as="geometry">
            <mxPoint x="-630" y="790" as="sourcePoint" />
            <mxPoint x="-274" y="662" as="targetPoint" />
            <mxPoint as="offset" />
            <Array as="points">
              <mxPoint x="-620" y="790" />
              <mxPoint x="-620" y="1090" />
              <mxPoint x="-274" y="1090" />
            </Array>
          </mxGeometry>
        </mxCell>
        <mxCell id="CV52lfoXkeO3yjH1Nklx-193" value="&lt;font style=&quot;font-size: 16px;&quot;&gt;par2ser&lt;/font&gt;" style="whiteSpace=wrap;html=1;fillColor=#ffcccc;strokeColor=#36393d;" vertex="1" parent="1">
          <mxGeometry x="-194" y="1070" width="76.67" height="60" as="geometry" />
        </mxCell>
        <mxCell id="CV52lfoXkeO3yjH1Nklx-194" value="clk_5x" style="endArrow=block;rounded=0;verticalAlign=bottom;fillColor=none;labelBackgroundColor=none;strokeWidth=1;endFill=1;endSize=4;startSize=4;fontColor=default;" edge="1" parent="1">
          <mxGeometry x="-0.111" y="-1" width="50" height="50" relative="1" as="geometry">
            <mxPoint x="-274" y="1090" as="sourcePoint" />
            <mxPoint x="-194" y="1090" as="targetPoint" />
            <mxPoint as="offset" />
          </mxGeometry>
        </mxCell>
        <mxCell id="CV52lfoXkeO3yjH1Nklx-195" value="10&#39;b11111_00000 par_data[9:0]" style="endArrow=block;rounded=0;verticalAlign=bottom;fillColor=none;labelBackgroundColor=none;strokeWidth=1;endFill=1;endSize=4;startSize=4;fontColor=default;" edge="1" parent="1">
          <mxGeometry x="-1" y="-10" width="50" height="50" relative="1" as="geometry">
            <mxPoint x="-274" y="1110" as="sourcePoint" />
            <mxPoint x="-194" y="1110" as="targetPoint" />
            <mxPoint x="-10" y="-9" as="offset" />
          </mxGeometry>
        </mxCell>
        <mxCell id="CV52lfoXkeO3yjH1Nklx-196" value="ser_data_p" style="endArrow=block;rounded=0;verticalAlign=bottom;fillColor=none;labelBackgroundColor=none;strokeWidth=1;endFill=1;endSize=4;startSize=4;fontColor=default;" edge="1" parent="1">
          <mxGeometry x="-0.1429" width="50" height="50" relative="1" as="geometry">
            <mxPoint x="-117.33000000000004" y="1090" as="sourcePoint" />
            <mxPoint x="-47.33000000000004" y="1090" as="targetPoint" />
            <mxPoint as="offset" />
          </mxGeometry>
        </mxCell>
        <mxCell id="CV52lfoXkeO3yjH1Nklx-197" value="ser_data_n" style="endArrow=block;rounded=0;verticalAlign=bottom;fillColor=none;labelBackgroundColor=none;strokeWidth=1;endFill=1;endSize=4;startSize=4;fontColor=default;" edge="1" parent="1">
          <mxGeometry x="-0.1429" width="50" height="50" relative="1" as="geometry">
            <mxPoint x="-117.33000000000004" y="1110" as="sourcePoint" />
            <mxPoint x="-47.33000000000004" y="1110" as="targetPoint" />
            <mxPoint as="offset" />
          </mxGeometry>
        </mxCell>
        <mxCell id="CV52lfoXkeO3yjH1Nklx-243" value="Assets" style="childLayout=tableLayout;recursiveResize=0;strokeColor=#98bf21;fillColor=#A7C942;shadow=1;" vertex="1" parent="1">
          <mxGeometry x="280" y="760" width="466" height="253" as="geometry" />
        </mxCell>
        <mxCell id="CV52lfoXkeO3yjH1Nklx-244" style="shape=tableRow;horizontal=0;startSize=0;swimlaneHead=0;swimlaneBody=0;top=0;left=0;bottom=0;right=0;dropTarget=0;collapsible=0;recursiveResize=0;expand=0;fontStyle=0;strokeColor=inherit;fillColor=#ffffff;" vertex="1" parent="CV52lfoXkeO3yjH1Nklx-243">
          <mxGeometry width="466" height="33" as="geometry" />
        </mxCell>
        <mxCell id="CV52lfoXkeO3yjH1Nklx-245" value="信号名" style="connectable=0;recursiveResize=0;strokeColor=inherit;fillColor=#A7C942;align=center;fontStyle=1;fontColor=#FFFFFF;html=1;" vertex="1" parent="CV52lfoXkeO3yjH1Nklx-244">
          <mxGeometry width="93" height="33" as="geometry">
            <mxRectangle width="93" height="33" as="alternateBounds" />
          </mxGeometry>
        </mxCell>
        <mxCell id="CV52lfoXkeO3yjH1Nklx-246" value="位宽" style="connectable=0;recursiveResize=0;strokeColor=inherit;fillColor=#A7C942;align=center;fontStyle=1;fontColor=#FFFFFF;html=1;" vertex="1" parent="CV52lfoXkeO3yjH1Nklx-244">
          <mxGeometry x="93" width="93" height="33" as="geometry">
            <mxRectangle width="93" height="33" as="alternateBounds" />
          </mxGeometry>
        </mxCell>
        <mxCell id="CV52lfoXkeO3yjH1Nklx-247" value="方向" style="connectable=0;recursiveResize=0;strokeColor=inherit;fillColor=#A7C942;align=center;fontStyle=1;fontColor=#FFFFFF;html=1;" vertex="1" parent="CV52lfoXkeO3yjH1Nklx-244">
          <mxGeometry x="186" width="94" height="33" as="geometry">
            <mxRectangle width="94" height="33" as="alternateBounds" />
          </mxGeometry>
        </mxCell>
        <mxCell id="CV52lfoXkeO3yjH1Nklx-248" value="端口说明" style="connectable=0;recursiveResize=0;strokeColor=inherit;fillColor=#A7C942;align=center;fontStyle=1;fontColor=#FFFFFF;html=1;" vertex="1" parent="CV52lfoXkeO3yjH1Nklx-244">
          <mxGeometry x="280" width="186" height="33" as="geometry">
            <mxRectangle width="186" height="33" as="alternateBounds" />
          </mxGeometry>
        </mxCell>
        <mxCell id="CV52lfoXkeO3yjH1Nklx-249" value="" style="shape=tableRow;horizontal=0;startSize=0;swimlaneHead=0;swimlaneBody=0;top=0;left=0;bottom=0;right=0;dropTarget=0;collapsible=0;recursiveResize=0;expand=0;fontStyle=0;strokeColor=inherit;fillColor=#ffffff;" vertex="1" parent="CV52lfoXkeO3yjH1Nklx-243">
          <mxGeometry y="33" width="466" height="32" as="geometry" />
        </mxCell>
        <mxCell id="CV52lfoXkeO3yjH1Nklx-250" value="&lt;span style=&quot;font-size: 11px; text-wrap: nowrap;&quot;&gt;sys_clk&lt;/span&gt;" style="connectable=0;recursiveResize=0;strokeColor=inherit;fillColor=inherit;align=center;whiteSpace=wrap;html=1;" vertex="1" parent="CV52lfoXkeO3yjH1Nklx-249">
          <mxGeometry width="93" height="32" as="geometry">
            <mxRectangle width="93" height="32" as="alternateBounds" />
          </mxGeometry>
        </mxCell>
        <mxCell id="CV52lfoXkeO3yjH1Nklx-251" value="1" style="connectable=0;recursiveResize=0;strokeColor=inherit;fillColor=inherit;align=center;whiteSpace=wrap;html=1;" vertex="1" parent="CV52lfoXkeO3yjH1Nklx-249">
          <mxGeometry x="93" width="93" height="32" as="geometry">
            <mxRectangle width="93" height="32" as="alternateBounds" />
          </mxGeometry>
        </mxCell>
        <mxCell id="CV52lfoXkeO3yjH1Nklx-252" value="输入" style="connectable=0;recursiveResize=0;strokeColor=inherit;fillColor=inherit;align=center;whiteSpace=wrap;html=1;" vertex="1" parent="CV52lfoXkeO3yjH1Nklx-249">
          <mxGeometry x="186" width="94" height="32" as="geometry">
            <mxRectangle width="94" height="32" as="alternateBounds" />
          </mxGeometry>
        </mxCell>
        <mxCell id="CV52lfoXkeO3yjH1Nklx-253" value="25MHz工作时钟" style="connectable=0;recursiveResize=0;strokeColor=inherit;fillColor=inherit;align=center;whiteSpace=wrap;html=1;" vertex="1" parent="CV52lfoXkeO3yjH1Nklx-249">
          <mxGeometry x="280" width="186" height="32" as="geometry">
            <mxRectangle width="186" height="32" as="alternateBounds" />
          </mxGeometry>
        </mxCell>
        <mxCell id="CV52lfoXkeO3yjH1Nklx-254" value="" style="shape=tableRow;horizontal=0;startSize=0;swimlaneHead=0;swimlaneBody=0;top=0;left=0;bottom=0;right=0;dropTarget=0;collapsible=0;recursiveResize=0;expand=0;fontStyle=1;strokeColor=inherit;fillColor=#EAF2D3;" vertex="1" parent="CV52lfoXkeO3yjH1Nklx-243">
          <mxGeometry y="65" width="466" height="31" as="geometry" />
        </mxCell>
        <mxCell id="CV52lfoXkeO3yjH1Nklx-255" value="sys_rst_n" style="connectable=0;recursiveResize=0;strokeColor=inherit;fillColor=inherit;whiteSpace=wrap;html=1;" vertex="1" parent="CV52lfoXkeO3yjH1Nklx-254">
          <mxGeometry width="93" height="31" as="geometry">
            <mxRectangle width="93" height="31" as="alternateBounds" />
          </mxGeometry>
        </mxCell>
        <mxCell id="CV52lfoXkeO3yjH1Nklx-256" value="1" style="connectable=0;recursiveResize=0;strokeColor=inherit;fillColor=inherit;whiteSpace=wrap;html=1;" vertex="1" parent="CV52lfoXkeO3yjH1Nklx-254">
          <mxGeometry x="93" width="93" height="31" as="geometry">
            <mxRectangle width="93" height="31" as="alternateBounds" />
          </mxGeometry>
        </mxCell>
        <mxCell id="CV52lfoXkeO3yjH1Nklx-257" value="输入" style="connectable=0;recursiveResize=0;strokeColor=inherit;fillColor=inherit;whiteSpace=wrap;html=1;" vertex="1" parent="CV52lfoXkeO3yjH1Nklx-254">
          <mxGeometry x="186" width="94" height="31" as="geometry">
            <mxRectangle width="94" height="31" as="alternateBounds" />
          </mxGeometry>
        </mxCell>
        <mxCell id="CV52lfoXkeO3yjH1Nklx-258" value="复位，低电平有效" style="connectable=0;recursiveResize=0;strokeColor=inherit;fillColor=inherit;whiteSpace=wrap;html=1;" vertex="1" parent="CV52lfoXkeO3yjH1Nklx-254">
          <mxGeometry x="280" width="186" height="31" as="geometry">
            <mxRectangle width="186" height="31" as="alternateBounds" />
          </mxGeometry>
        </mxCell>
        <mxCell id="CV52lfoXkeO3yjH1Nklx-259" value="" style="shape=tableRow;horizontal=0;startSize=0;swimlaneHead=0;swimlaneBody=0;top=0;left=0;bottom=0;right=0;dropTarget=0;collapsible=0;recursiveResize=0;expand=0;fontStyle=0;strokeColor=inherit;fillColor=#ffffff;" vertex="1" parent="CV52lfoXkeO3yjH1Nklx-243">
          <mxGeometry y="96" width="466" height="33" as="geometry" />
        </mxCell>
        <mxCell id="CV52lfoXkeO3yjH1Nklx-260" value="c0" style="connectable=0;recursiveResize=0;strokeColor=inherit;fillColor=inherit;fontStyle=0;align=center;whiteSpace=wrap;html=1;" vertex="1" parent="CV52lfoXkeO3yjH1Nklx-259">
          <mxGeometry width="93" height="33" as="geometry">
            <mxRectangle width="93" height="33" as="alternateBounds" />
          </mxGeometry>
        </mxCell>
        <mxCell id="CV52lfoXkeO3yjH1Nklx-261" value="1" style="connectable=0;recursiveResize=0;strokeColor=inherit;fillColor=inherit;fontStyle=0;align=center;whiteSpace=wrap;html=1;" vertex="1" parent="CV52lfoXkeO3yjH1Nklx-259">
          <mxGeometry x="93" width="93" height="33" as="geometry">
            <mxRectangle width="93" height="33" as="alternateBounds" />
          </mxGeometry>
        </mxCell>
        <mxCell id="CV52lfoXkeO3yjH1Nklx-262" value="输入" style="connectable=0;recursiveResize=0;strokeColor=inherit;fillColor=inherit;fontStyle=0;align=center;whiteSpace=wrap;html=1;" vertex="1" parent="CV52lfoXkeO3yjH1Nklx-259">
          <mxGeometry x="186" width="94" height="33" as="geometry">
            <mxRectangle width="94" height="33" as="alternateBounds" />
          </mxGeometry>
        </mxCell>
        <mxCell id="CV52lfoXkeO3yjH1Nklx-263" value="输入控制信号（hsync）" style="connectable=0;recursiveResize=0;strokeColor=inherit;fillColor=inherit;fontStyle=0;align=center;whiteSpace=wrap;html=1;" vertex="1" parent="CV52lfoXkeO3yjH1Nklx-259">
          <mxGeometry x="280" width="186" height="33" as="geometry">
            <mxRectangle width="186" height="33" as="alternateBounds" />
          </mxGeometry>
        </mxCell>
        <mxCell id="CV52lfoXkeO3yjH1Nklx-264" value="" style="shape=tableRow;horizontal=0;startSize=0;swimlaneHead=0;swimlaneBody=0;top=0;left=0;bottom=0;right=0;dropTarget=0;collapsible=0;recursiveResize=0;expand=0;fontStyle=1;strokeColor=inherit;fillColor=#EAF2D3;" vertex="1" parent="CV52lfoXkeO3yjH1Nklx-243">
          <mxGeometry y="129" width="466" height="31" as="geometry" />
        </mxCell>
        <mxCell id="CV52lfoXkeO3yjH1Nklx-265" value="c1" style="connectable=0;recursiveResize=0;strokeColor=inherit;fillColor=inherit;whiteSpace=wrap;html=1;" vertex="1" parent="CV52lfoXkeO3yjH1Nklx-264">
          <mxGeometry width="93" height="31" as="geometry">
            <mxRectangle width="93" height="31" as="alternateBounds" />
          </mxGeometry>
        </mxCell>
        <mxCell id="CV52lfoXkeO3yjH1Nklx-266" value="1" style="connectable=0;recursiveResize=0;strokeColor=inherit;fillColor=inherit;whiteSpace=wrap;html=1;" vertex="1" parent="CV52lfoXkeO3yjH1Nklx-264">
          <mxGeometry x="93" width="93" height="31" as="geometry">
            <mxRectangle width="93" height="31" as="alternateBounds" />
          </mxGeometry>
        </mxCell>
        <mxCell id="CV52lfoXkeO3yjH1Nklx-267" value="输入" style="connectable=0;recursiveResize=0;strokeColor=inherit;fillColor=inherit;whiteSpace=wrap;html=1;" vertex="1" parent="CV52lfoXkeO3yjH1Nklx-264">
          <mxGeometry x="186" width="94" height="31" as="geometry">
            <mxRectangle width="94" height="31" as="alternateBounds" />
          </mxGeometry>
        </mxCell>
        <mxCell id="CV52lfoXkeO3yjH1Nklx-268" value="输入控制信号（vsync）" style="connectable=0;recursiveResize=0;strokeColor=inherit;fillColor=inherit;whiteSpace=wrap;html=1;" vertex="1" parent="CV52lfoXkeO3yjH1Nklx-264">
          <mxGeometry x="280" width="186" height="31" as="geometry">
            <mxRectangle width="186" height="31" as="alternateBounds" />
          </mxGeometry>
        </mxCell>
        <mxCell id="CV52lfoXkeO3yjH1Nklx-269" style="shape=tableRow;horizontal=0;startSize=0;swimlaneHead=0;swimlaneBody=0;top=0;left=0;bottom=0;right=0;dropTarget=0;collapsible=0;recursiveResize=0;expand=0;fontStyle=1;strokeColor=inherit;fillColor=#EAF2D3;" vertex="1" parent="CV52lfoXkeO3yjH1Nklx-243">
          <mxGeometry y="160" width="466" height="31" as="geometry" />
        </mxCell>
        <mxCell id="CV52lfoXkeO3yjH1Nklx-270" value="de" style="connectable=0;recursiveResize=0;whiteSpace=wrap;html=1;fillColor=default;strokeColor=inherit;" vertex="1" parent="CV52lfoXkeO3yjH1Nklx-269">
          <mxGeometry width="93" height="31" as="geometry">
            <mxRectangle width="93" height="31" as="alternateBounds" />
          </mxGeometry>
        </mxCell>
        <mxCell id="CV52lfoXkeO3yjH1Nklx-271" value="1" style="connectable=0;recursiveResize=0;whiteSpace=wrap;html=1;fillColor=default;strokeColor=inherit;" vertex="1" parent="CV52lfoXkeO3yjH1Nklx-269">
          <mxGeometry x="93" width="93" height="31" as="geometry">
            <mxRectangle width="93" height="31" as="alternateBounds" />
          </mxGeometry>
        </mxCell>
        <mxCell id="CV52lfoXkeO3yjH1Nklx-272" value="输入" style="connectable=0;recursiveResize=0;whiteSpace=wrap;html=1;fillColor=default;strokeColor=inherit;" vertex="1" parent="CV52lfoXkeO3yjH1Nklx-269">
          <mxGeometry x="186" width="94" height="31" as="geometry">
            <mxRectangle width="94" height="31" as="alternateBounds" />
          </mxGeometry>
        </mxCell>
        <mxCell id="CV52lfoXkeO3yjH1Nklx-273" value="使能信号" style="connectable=0;recursiveResize=0;whiteSpace=wrap;html=1;fillColor=default;strokeColor=inherit;" vertex="1" parent="CV52lfoXkeO3yjH1Nklx-269">
          <mxGeometry x="280" width="186" height="31" as="geometry">
            <mxRectangle width="186" height="31" as="alternateBounds" />
          </mxGeometry>
        </mxCell>
        <mxCell id="CV52lfoXkeO3yjH1Nklx-274" style="shape=tableRow;horizontal=0;startSize=0;swimlaneHead=0;swimlaneBody=0;top=0;left=0;bottom=0;right=0;dropTarget=0;collapsible=0;recursiveResize=0;expand=0;fontStyle=1;strokeColor=inherit;fillColor=#EAF2D3;" vertex="1" parent="CV52lfoXkeO3yjH1Nklx-243">
          <mxGeometry y="191" width="466" height="31" as="geometry" />
        </mxCell>
        <mxCell id="CV52lfoXkeO3yjH1Nklx-275" value="data_in" style="connectable=0;recursiveResize=0;strokeColor=inherit;fillColor=inherit;whiteSpace=wrap;html=1;" vertex="1" parent="CV52lfoXkeO3yjH1Nklx-274">
          <mxGeometry width="93" height="31" as="geometry">
            <mxRectangle width="93" height="31" as="alternateBounds" />
          </mxGeometry>
        </mxCell>
        <mxCell id="CV52lfoXkeO3yjH1Nklx-276" value="8" style="connectable=0;recursiveResize=0;strokeColor=inherit;fillColor=inherit;whiteSpace=wrap;html=1;" vertex="1" parent="CV52lfoXkeO3yjH1Nklx-274">
          <mxGeometry x="93" width="93" height="31" as="geometry">
            <mxRectangle width="93" height="31" as="alternateBounds" />
          </mxGeometry>
        </mxCell>
        <mxCell id="CV52lfoXkeO3yjH1Nklx-277" value="输入" style="connectable=0;recursiveResize=0;strokeColor=inherit;fillColor=inherit;whiteSpace=wrap;html=1;" vertex="1" parent="CV52lfoXkeO3yjH1Nklx-274">
          <mxGeometry x="186" width="94" height="31" as="geometry">
            <mxRectangle width="94" height="31" as="alternateBounds" />
          </mxGeometry>
        </mxCell>
        <mxCell id="CV52lfoXkeO3yjH1Nklx-278" value="待编码8bit数据" style="connectable=0;recursiveResize=0;strokeColor=inherit;fillColor=inherit;whiteSpace=wrap;html=1;" vertex="1" parent="CV52lfoXkeO3yjH1Nklx-274">
          <mxGeometry x="280" width="186" height="31" as="geometry">
            <mxRectangle width="186" height="31" as="alternateBounds" />
          </mxGeometry>
        </mxCell>
        <mxCell id="CV52lfoXkeO3yjH1Nklx-279" style="shape=tableRow;horizontal=0;startSize=0;swimlaneHead=0;swimlaneBody=0;top=0;left=0;bottom=0;right=0;dropTarget=0;collapsible=0;recursiveResize=0;expand=0;fontStyle=1;strokeColor=inherit;fillColor=#EAF2D3;" vertex="1" parent="CV52lfoXkeO3yjH1Nklx-243">
          <mxGeometry y="222" width="466" height="31" as="geometry" />
        </mxCell>
        <mxCell id="CV52lfoXkeO3yjH1Nklx-280" value="data_out" style="connectable=0;recursiveResize=0;whiteSpace=wrap;html=1;strokeColor=inherit;" vertex="1" parent="CV52lfoXkeO3yjH1Nklx-279">
          <mxGeometry width="93" height="31" as="geometry">
            <mxRectangle width="93" height="31" as="alternateBounds" />
          </mxGeometry>
        </mxCell>
        <mxCell id="CV52lfoXkeO3yjH1Nklx-281" value="10" style="connectable=0;recursiveResize=0;whiteSpace=wrap;html=1;strokeColor=inherit;" vertex="1" parent="CV52lfoXkeO3yjH1Nklx-279">
          <mxGeometry x="93" width="93" height="31" as="geometry">
            <mxRectangle width="93" height="31" as="alternateBounds" />
          </mxGeometry>
        </mxCell>
        <mxCell id="CV52lfoXkeO3yjH1Nklx-282" value="输出" style="connectable=0;recursiveResize=0;whiteSpace=wrap;html=1;strokeColor=inherit;" vertex="1" parent="CV52lfoXkeO3yjH1Nklx-279">
          <mxGeometry x="186" width="94" height="31" as="geometry">
            <mxRectangle width="94" height="31" as="alternateBounds" />
          </mxGeometry>
        </mxCell>
        <mxCell id="CV52lfoXkeO3yjH1Nklx-283" value="编码后10bit数据" style="connectable=0;recursiveResize=0;whiteSpace=wrap;html=1;strokeColor=inherit;" vertex="1" parent="CV52lfoXkeO3yjH1Nklx-279">
          <mxGeometry x="280" width="186" height="31" as="geometry">
            <mxRectangle width="186" height="31" as="alternateBounds" />
          </mxGeometry>
        </mxCell>
        <mxCell id="CV52lfoXkeO3yjH1Nklx-334" value="&lt;span style=&quot;font-size: 16px; text-wrap: wrap;&quot;&gt;par2ser&lt;/span&gt;" style="text;html=1;align=center;verticalAlign=middle;resizable=0;points=[];autosize=1;strokeColor=none;fillColor=none;" vertex="1" parent="1">
          <mxGeometry x="956.66" y="587" width="80" height="30" as="geometry" />
        </mxCell>
        <mxCell id="CV52lfoXkeO3yjH1Nklx-335" value="oddr" style="rounded=0;whiteSpace=wrap;html=1;fillColor=#cce5ff;strokeColor=#36393d;" vertex="1" parent="1">
          <mxGeometry x="976.66" y="619" width="33.34" height="21" as="geometry" />
        </mxCell>
        <mxCell id="CV52lfoXkeO3yjH1Nklx-336" value="oddr" style="rounded=0;whiteSpace=wrap;html=1;fillColor=#cce5ff;strokeColor=#36393d;" vertex="1" parent="1">
          <mxGeometry x="976.66" y="650" width="33.34" height="21" as="geometry" />
        </mxCell>
      </root>
    </mxGraphModel>
  </diagram>
</mxfile>
